<svg width="892" height="7" viewBox="0 0 892 7" fill="none" xmlns="http://www.w3.org/2000/svg">
<g clip-path="url(#clip0_2048_349)">
<path d="M7.4494 0H0V7H7.4494V0Z" fill="#F2B705"/>
<path d="M15.9979 1.33435V5.66565H11.3885V1.33435H15.9979ZM17.4179 0H9.96851V7H17.4179V0Z" fill="#F2B705"/>
<path d="M27.7073 0H20.2579V7H27.7073V0Z" fill="#F2B705"/>
<path d="M36.2558 1.33435V5.66565H31.6465V1.33435H36.2558ZM37.6758 0H30.2264V7H37.6758V0Z" fill="#F2B705"/>
<path d="M47.9653 0H40.5159V7H47.9653V0Z" fill="#F2B705"/>
<path d="M56.5138 1.33435V5.66565H51.9044V1.33435H56.5138ZM57.9338 0H50.4844V7H57.9338V0Z" fill="#F2B705"/>
<path d="M68.2232 0H60.7738V7H68.2232V0Z" fill="#F2B705"/>
<path d="M76.7717 1.33435V5.66565H72.1623V1.33435H76.7717ZM78.1917 0H70.7423V7H78.1917V0Z" fill="#F2B705"/>
<path d="M88.4839 0H81.0345V7H88.4839V0Z" fill="#F2B705"/>
<path d="M97.0324 1.33435V5.66565H92.4231V1.33435H97.0324ZM98.4525 0H91.0031V7H98.4525V0Z" fill="#F2B705"/>
<path d="M108.742 0H101.292V7H108.742V0Z" fill="#F2B705"/>
<path d="M117.29 1.33435V5.66565H112.681V1.33435H117.29ZM118.71 0H111.261V7H118.71V0Z" fill="#F2B705"/>
<path d="M129 0H121.55V7H129V0Z" fill="#F2B705"/>
<path d="M137.548 1.33435V5.66565H132.939V1.33435H137.548ZM138.968 0H131.519V7H138.968V0Z" fill="#F2B705"/>
<path d="M149.258 0H141.808V7H149.258V0Z" fill="#F2B705"/>
<path d="M157.806 1.33435V5.66565H153.197V1.33435H157.806ZM159.226 0H151.777V7H159.226V0Z" fill="#F2B705"/>
<path d="M169.516 0H162.066V7H169.516V0Z" fill="#F2B705"/>
<path d="M178.064 1.33435V5.66565H173.455V1.33435H178.064ZM179.484 0H172.035V7H179.484V0Z" fill="#F2B705"/>
<path d="M189.774 0H182.324V7H189.774V0Z" fill="#F2B705"/>
<path d="M198.322 1.33435V5.66565H193.713V1.33435H198.322ZM199.742 0H192.293V7H199.742V0Z" fill="#F2B705"/>
<path d="M210.031 0H202.582V7H210.031V0Z" fill="#F2B705"/>
<path d="M218.58 1.33435V5.66565H213.971V1.33435H218.58ZM220 0H212.551V7H220V0Z" fill="#F2B705"/>
</g>
<g clip-path="url(#clip1_2048_349)">
<path d="M231.449 0H224V7H231.449V0Z" fill="#F2B705"/>
<path d="M239.998 1.33435V5.66565H235.389V1.33435H239.998ZM241.418 0H233.969V7H241.418V0Z" fill="#F2B705"/>
<path d="M251.707 0H244.258V7H251.707V0Z" fill="#F2B705"/>
<path d="M260.256 1.33435V5.66565H255.646V1.33435H260.256ZM261.676 0H254.226V7H261.676V0Z" fill="#F2B705"/>
<path d="M271.965 0H264.516V7H271.965V0Z" fill="#F2B705"/>
<path d="M280.514 1.33435V5.66565H275.904V1.33435H280.514ZM281.934 0H274.484V7H281.934V0Z" fill="#F2B705"/>
<path d="M292.223 0H284.774V7H292.223V0Z" fill="#F2B705"/>
<path d="M300.772 1.33435V5.66565H296.162V1.33435H300.772ZM302.192 0H294.742V7H302.192V0Z" fill="#F2B705"/>
<path d="M312.484 0H305.035V7H312.484V0Z" fill="#F2B705"/>
<path d="M321.032 1.33435V5.66565H316.423V1.33435H321.032ZM322.452 0H315.003V7H322.452V0Z" fill="#F2B705"/>
<path d="M332.742 0H325.292V7H332.742V0Z" fill="#F2B705"/>
<path d="M341.29 1.33435V5.66565H336.681V1.33435H341.29ZM342.71 0H335.261V7H342.71V0Z" fill="#F2B705"/>
<path d="M353 0H345.55V7H353V0Z" fill="#F2B705"/>
<path d="M361.548 1.33435V5.66565H356.939V1.33435H361.548ZM362.968 0H355.519V7H362.968V0Z" fill="#F2B705"/>
<path d="M373.258 0H365.808V7H373.258V0Z" fill="#F2B705"/>
<path d="M381.806 1.33435V5.66565H377.197V1.33435H381.806ZM383.226 0H375.777V7H383.226V0Z" fill="#F2B705"/>
<path d="M393.516 0H386.066V7H393.516V0Z" fill="#F2B705"/>
<path d="M402.064 1.33435V5.66565H397.455V1.33435H402.064ZM403.484 0H396.035V7H403.484V0Z" fill="#F2B705"/>
<path d="M413.774 0H406.324V7H413.774V0Z" fill="#F2B705"/>
<path d="M422.322 1.33435V5.66565H417.713V1.33435H422.322ZM423.742 0H416.293V7H423.742V0Z" fill="#F2B705"/>
<path d="M434.031 0H426.582V7H434.031V0Z" fill="#F2B705"/>
<path d="M442.58 1.33435V5.66565H437.971V1.33435H442.58ZM444 0H436.551V7H444V0Z" fill="#F2B705"/>
</g>
<g clip-path="url(#clip2_2048_349)">
<path d="M455.449 0H448V7H455.449V0Z" fill="#F2B705"/>
<path d="M463.998 1.33435V5.66565H459.389V1.33435H463.998ZM465.418 0H457.969V7H465.418V0Z" fill="#F2B705"/>
<path d="M475.707 0H468.258V7H475.707V0Z" fill="#F2B705"/>
<path d="M484.256 1.33435V5.66565H479.646V1.33435H484.256ZM485.676 0H478.226V7H485.676V0Z" fill="#F2B705"/>
<path d="M495.965 0H488.516V7H495.965V0Z" fill="#F2B705"/>
<path d="M504.514 1.33435V5.66565H499.904V1.33435H504.514ZM505.934 0H498.484V7H505.934V0Z" fill="#F2B705"/>
<path d="M516.223 0H508.774V7H516.223V0Z" fill="#F2B705"/>
<path d="M524.772 1.33435V5.66565H520.162V1.33435H524.772ZM526.192 0H518.742V7H526.192V0Z" fill="#F2B705"/>
<path d="M536.484 0H529.035V7H536.484V0Z" fill="#F2B705"/>
<path d="M545.032 1.33435V5.66565H540.423V1.33435H545.032ZM546.452 0H539.003V7H546.452V0Z" fill="#F2B705"/>
<path d="M556.742 0H549.292V7H556.742V0Z" fill="#F2B705"/>
<path d="M565.29 1.33435V5.66565H560.681V1.33435H565.29ZM566.71 0H559.261V7H566.71V0Z" fill="#F2B705"/>
<path d="M577 0H569.55V7H577V0Z" fill="#F2B705"/>
<path d="M585.548 1.33435V5.66565H580.939V1.33435H585.548ZM586.968 0H579.519V7H586.968V0Z" fill="#F2B705"/>
<path d="M597.258 0H589.808V7H597.258V0Z" fill="#F2B705"/>
<path d="M605.806 1.33435V5.66565H601.197V1.33435H605.806ZM607.226 0H599.777V7H607.226V0Z" fill="#F2B705"/>
<path d="M617.516 0H610.066V7H617.516V0Z" fill="#F2B705"/>
<path d="M626.064 1.33435V5.66565H621.455V1.33435H626.064ZM627.484 0H620.035V7H627.484V0Z" fill="#F2B705"/>
<path d="M637.774 0H630.324V7H637.774V0Z" fill="#F2B705"/>
<path d="M646.322 1.33435V5.66565H641.713V1.33435H646.322ZM647.742 0H640.293V7H647.742V0Z" fill="#F2B705"/>
<path d="M658.031 0H650.582V7H658.031V0Z" fill="#F2B705"/>
<path d="M666.58 1.33435V5.66565H661.971V1.33435H666.58ZM668 0H660.551V7H668V0Z" fill="#F2B705"/>
</g>
<g clip-path="url(#clip3_2048_349)">
<path d="M679.449 0H672V7H679.449V0Z" fill="#F2B705"/>
<path d="M687.998 1.33435V5.66565H683.389V1.33435H687.998ZM689.418 0H681.969V7H689.418V0Z" fill="#F2B705"/>
<path d="M699.707 0H692.258V7H699.707V0Z" fill="#F2B705"/>
<path d="M708.256 1.33435V5.66565H703.646V1.33435H708.256ZM709.676 0H702.226V7H709.676V0Z" fill="#F2B705"/>
<path d="M719.965 0H712.516V7H719.965V0Z" fill="#F2B705"/>
<path d="M728.514 1.33435V5.66565H723.904V1.33435H728.514ZM729.934 0H722.484V7H729.934V0Z" fill="#F2B705"/>
<path d="M740.223 0H732.774V7H740.223V0Z" fill="#F2B705"/>
<path d="M748.772 1.33435V5.66565H744.162V1.33435H748.772ZM750.192 0H742.742V7H750.192V0Z" fill="#F2B705"/>
<path d="M760.484 0H753.035V7H760.484V0Z" fill="#F2B705"/>
<path d="M769.032 1.33435V5.66565H764.423V1.33435H769.032ZM770.452 0H763.003V7H770.452V0Z" fill="#F2B705"/>
<path d="M780.742 0H773.292V7H780.742V0Z" fill="#F2B705"/>
<path d="M789.29 1.33435V5.66565H784.681V1.33435H789.29ZM790.71 0H783.261V7H790.71V0Z" fill="#F2B705"/>
<path d="M801 0H793.55V7H801V0Z" fill="#F2B705"/>
<path d="M809.548 1.33435V5.66565H804.939V1.33435H809.548ZM810.968 0H803.519V7H810.968V0Z" fill="#F2B705"/>
<path d="M821.258 0H813.808V7H821.258V0Z" fill="#F2B705"/>
<path d="M829.806 1.33435V5.66565H825.197V1.33435H829.806ZM831.226 0H823.777V7H831.226V0Z" fill="#F2B705"/>
<path d="M841.516 0H834.066V7H841.516V0Z" fill="#F2B705"/>
<path d="M850.064 1.33435V5.66565H845.455V1.33435H850.064ZM851.484 0H844.035V7H851.484V0Z" fill="#F2B705"/>
<path d="M861.774 0H854.324V7H861.774V0Z" fill="#F2B705"/>
<path d="M870.322 1.33435V5.66565H865.713V1.33435H870.322ZM871.742 0H864.293V7H871.742V0Z" fill="#F2B705"/>
<path d="M882.031 0H874.582V7H882.031V0Z" fill="#F2B705"/>
<path d="M890.58 1.33435V5.66565H885.971V1.33435H890.58ZM892 0H884.551V7H892V0Z" fill="#F2B705"/>
</g>
<defs>
<clipPath id="clip0_2048_349">
<rect width="220" height="7" fill="white"/>
</clipPath>
<clipPath id="clip1_2048_349">
<rect width="220" height="7" fill="white" transform="translate(224)"/>
</clipPath>
<clipPath id="clip2_2048_349">
<rect width="220" height="7" fill="white" transform="translate(448)"/>
</clipPath>
<clipPath id="clip3_2048_349">
<rect width="220" height="7" fill="white" transform="translate(672)"/>
</clipPath>
</defs>
</svg>
