<svg width="20" height="20" viewBox="0 0 20 20" fill="none" xmlns="http://www.w3.org/2000/svg">
<path d="M5.9375 10C7.4908 10 8.75 8.7408 8.75 7.1875C8.75 5.6342 7.4908 4.375 5.9375 4.375C4.3842 4.375 3.125 5.6342 3.125 7.1875C3.125 8.7408 4.3842 10 5.9375 10Z" fill="#C30D23"/>
<path d="M9.14062 11.5625C8.04063 11.0039 6.82656 10.7812 5.9375 10.7812C4.19609 10.7812 0.625 11.8492 0.625 13.9844V15.625H6.48438V14.9973C6.48438 14.2551 6.79688 13.5109 7.34375 12.8906C7.78008 12.3953 8.39102 11.9355 9.14062 11.5625Z" fill="#C30D23"/>
<path d="M13.2812 11.25C11.2473 11.25 7.1875 12.5063 7.1875 15V16.875H19.375V15C19.375 12.5063 15.3152 11.25 13.2812 11.25Z" fill="#C30D23"/>
<path d="M13.2812 10C15.1797 10 16.7188 8.46098 16.7188 6.5625C16.7188 4.66402 15.1797 3.125 13.2812 3.125C11.3828 3.125 9.84375 4.66402 9.84375 6.5625C9.84375 8.46098 11.3828 10 13.2812 10Z" fill="#C30D23"/>
</svg>
