<svg width="60" height="59" viewBox="0 0 60 59" fill="none" xmlns="http://www.w3.org/2000/svg">
<circle cx="30" cy="29.5" r="29.5" fill="white"/>
<path fill-rule="evenodd" clip-rule="evenodd" d="M16.3334 29.4998C16.3336 26.8698 17.0927 24.2956 18.5197 22.0863C19.9466 19.877 21.9807 18.1263 24.3779 17.0444C26.7751 15.9625 29.4336 15.5952 32.0344 15.9867C34.6351 16.3782 37.0677 17.5118 39.0401 19.2515C41.0126 20.9912 42.4412 23.2632 43.1545 25.7946C43.8678 28.3261 43.8355 31.0097 43.0614 33.5233C42.2874 36.0368 40.8045 38.2737 38.7907 39.9654C36.7769 41.6571 34.3178 42.7318 31.7084 43.0606V32.9165H35.125C35.5781 32.9165 36.0126 32.7365 36.333 32.4161C36.6534 32.0958 36.8334 31.6612 36.8334 31.2082C36.8334 30.7551 36.6534 30.3206 36.333 30.0002C36.0126 29.6798 35.5781 29.4998 35.125 29.4998H31.7084V26.0832C31.7084 25.6301 31.8883 25.1956 32.2087 24.8752C32.5291 24.5548 32.9636 24.3748 33.4167 24.3748H34.2709C34.7239 24.3748 35.1585 24.1949 35.4788 23.8745C35.7992 23.5541 35.9792 23.1196 35.9792 22.6665C35.9792 22.2134 35.7992 21.7789 35.4788 21.4585C35.1585 21.1382 34.7239 20.9582 34.2709 20.9582H33.4167C32.0575 20.9582 30.7539 21.4981 29.7928 22.4592C28.8316 23.4204 28.2917 24.7239 28.2917 26.0832V29.4998H24.875C24.4219 29.4998 23.9874 29.6798 23.667 30.0002C23.3467 30.3206 23.1667 30.7551 23.1667 31.2082C23.1667 31.6612 23.3467 32.0958 23.667 32.4161C23.9874 32.7365 24.4219 32.9165 24.875 32.9165H28.2917V43.0606C24.9888 42.6445 21.9514 41.0371 19.7496 38.5403C17.5478 36.0434 16.333 32.8288 16.3334 29.4998ZM30 46.5832C39.4351 46.5832 47.0834 38.935 47.0834 29.4998C47.0834 20.0647 39.4351 12.4165 30 12.4165C20.5649 12.4165 12.9167 20.0647 12.9167 29.4998C12.9167 38.935 20.5649 46.5832 30 46.5832Z" fill="#83A602"/>
</svg>
