<svg width="60" height="59" viewBox="0 0 60 59" fill="none" xmlns="http://www.w3.org/2000/svg">
<circle cx="30" cy="29.5" r="29.5" fill="white"/>
<path fill-rule="evenodd" clip-rule="evenodd" d="M30.5377 48.7013L30.5185 48.7048L30.3942 48.766L30.3592 48.773L30.3347 48.766L30.2105 48.7048C30.1918 48.6989 30.1778 48.7019 30.1685 48.7135L30.1615 48.731L30.1317 49.48L30.1405 49.515L30.158 49.5378L30.34 49.6673L30.3662 49.6743L30.3872 49.6673L30.5692 49.5378L30.5902 49.5098L30.5972 49.48L30.5675 48.7328C30.5628 48.7141 30.5529 48.7036 30.5377 48.7013ZM31.0015 48.5035L30.9787 48.507L30.655 48.6698L30.6375 48.6873L30.6322 48.7065L30.6637 49.459L30.6725 49.48L30.6865 49.4923L31.0382 49.655C31.0604 49.6609 31.0773 49.6562 31.089 49.641L31.096 49.6165L31.0365 48.542C31.0307 48.521 31.019 48.5082 31.0015 48.5035ZM29.7502 48.507C29.7425 48.5023 29.7333 48.5008 29.7245 48.5028C29.7157 48.5047 29.708 48.51 29.703 48.5175L29.6925 48.542L29.633 49.6165C29.6342 49.6375 29.6441 49.6515 29.6627 49.6585L29.689 49.655L30.0407 49.4923L30.0582 49.4783L30.0652 49.459L30.095 48.7065L30.0897 48.6855L30.0722 48.668L29.7502 48.507Z" fill="#83A602"/>
<path fill-rule="evenodd" clip-rule="evenodd" d="M36.5 13.25C38.8206 13.25 41.0462 14.1719 42.6872 15.8128C44.3281 17.4538 45.25 19.6794 45.25 22V36C45.25 38.3206 44.3281 40.5462 42.6872 42.1872C41.0462 43.8281 38.8206 44.75 36.5 44.75H22.5C20.1794 44.75 17.9538 43.8281 16.3128 42.1872C14.6719 40.5462 13.75 38.3206 13.75 36V22C13.75 19.6794 14.6719 17.4538 16.3128 15.8128C17.9538 14.1719 20.1794 13.25 22.5 13.25H36.5ZM36.5 16.75H22.5C21.1076 16.75 19.7723 17.3031 18.7877 18.2877C17.8031 19.2723 17.25 20.6076 17.25 22V36C17.25 37.3924 17.8031 38.7277 18.7877 39.7123C19.7723 40.6969 21.1076 41.25 22.5 41.25H36.5C37.8924 41.25 39.2277 40.6969 40.2123 39.7123C41.1969 38.7277 41.75 37.3924 41.75 36V22C41.75 20.6076 41.1969 19.2723 40.2123 18.2877C39.2277 17.3031 37.8924 16.75 36.5 16.75ZM29.5 22C31.3565 22 33.137 22.7375 34.4497 24.0503C35.7625 25.363 36.5 27.1435 36.5 29C36.5 30.8565 35.7625 32.637 34.4497 33.9497C33.137 35.2625 31.3565 36 29.5 36C27.6435 36 25.863 35.2625 24.5503 33.9497C23.2375 32.637 22.5 30.8565 22.5 29C22.5 27.1435 23.2375 25.363 24.5503 24.0503C25.863 22.7375 27.6435 22 29.5 22ZM29.5 25.5C28.5717 25.5 27.6815 25.8687 27.0251 26.5251C26.3687 27.1815 26 28.0717 26 29C26 29.9283 26.3687 30.8185 27.0251 31.4749C27.6815 32.1313 28.5717 32.5 29.5 32.5C30.4283 32.5 31.3185 32.1313 31.9749 31.4749C32.6313 30.8185 33 29.9283 33 29C33 28.0717 32.6313 27.1815 31.9749 26.5251C31.3185 25.8687 30.4283 25.5 29.5 25.5ZM37.375 19.375C37.8391 19.375 38.2843 19.5594 38.6124 19.8876C38.9406 20.2158 39.125 20.6609 39.125 21.125C39.125 21.5891 38.9406 22.0342 38.6124 22.3624C38.2843 22.6906 37.8391 22.875 37.375 22.875C36.9109 22.875 36.4658 22.6906 36.1376 22.3624C35.8094 22.0342 35.625 21.5891 35.625 21.125C35.625 20.6609 35.8094 20.2158 36.1376 19.8876C36.4658 19.5594 36.9109 19.375 37.375 19.375Z" fill="#83A602"/>
</svg>
