<svg width="220" height="7" viewBox="0 0 220 7" fill="none" xmlns="http://www.w3.org/2000/svg">
<g id="LINE 4" clip-path="url(#clip0_2050_306)">
<g id="Layer 1">
<g id="Group">
<g id="Group_2">
<path id="Vector" d="M7.4494 0H0V7H7.4494V0Z" fill="#F2B705"/>
<path id="Vector_2" d="M15.9979 1.33435V5.66565H11.3885V1.33435H15.9979ZM17.4179 0H9.96851V7H17.4179V0Z" fill="#F2B705"/>
</g>
<g id="Group_3">
<path id="Vector_3" d="M27.7073 0H20.2579V7H27.7073V0Z" fill="#F2B705"/>
<path id="Vector_4" d="M36.2558 1.33435V5.66565H31.6465V1.33435H36.2558ZM37.6758 0H30.2264V7H37.6758V0Z" fill="#F2B705"/>
</g>
<g id="Group_4">
<path id="Vector_5" d="M47.9653 0H40.5159V7H47.9653V0Z" fill="#F2B705"/>
<path id="Vector_6" d="M56.5138 1.33435V5.66565H51.9044V1.33435H56.5138ZM57.9338 0H50.4844V7H57.9338V0Z" fill="#F2B705"/>
</g>
<g id="Group_5">
<path id="Vector_7" d="M68.2232 0H60.7738V7H68.2232V0Z" fill="#F2B705"/>
<path id="Vector_8" d="M76.7717 1.33435V5.66565H72.1623V1.33435H76.7717ZM78.1917 0H70.7423V7H78.1917V0Z" fill="#F2B705"/>
</g>
<g id="Group_6">
<path id="Vector_9" d="M88.4839 0H81.0345V7H88.4839V0Z" fill="#F2B705"/>
<path id="Vector_10" d="M97.0324 1.33435V5.66565H92.4231V1.33435H97.0324ZM98.4525 0H91.0031V7H98.4525V0Z" fill="#F2B705"/>
</g>
<g id="Group_7">
<path id="Vector_11" d="M108.742 0H101.292V7H108.742V0Z" fill="#F2B705"/>
<path id="Vector_12" d="M117.29 1.33435V5.66565H112.681V1.33435H117.29ZM118.71 0H111.261V7H118.71V0Z" fill="#F2B705"/>
</g>
<g id="Group_8">
<path id="Vector_13" d="M129 0H121.55V7H129V0Z" fill="#F2B705"/>
<path id="Vector_14" d="M137.548 1.33435V5.66565H132.939V1.33435H137.548ZM138.968 0H131.519V7H138.968V0Z" fill="#F2B705"/>
</g>
<g id="Group_9">
<path id="Vector_15" d="M149.258 0H141.808V7H149.258V0Z" fill="#F2B705"/>
<path id="Vector_16" d="M157.806 1.33435V5.66565H153.197V1.33435H157.806ZM159.226 0H151.777V7H159.226V0Z" fill="#F2B705"/>
</g>
<g id="Group_10">
<path id="Vector_17" d="M169.516 0H162.066V7H169.516V0Z" fill="#F2B705"/>
<path id="Vector_18" d="M178.064 1.33435V5.66565H173.455V1.33435H178.064ZM179.484 0H172.035V7H179.484V0Z" fill="#F2B705"/>
</g>
<g id="Group_11">
<path id="Vector_19" d="M189.774 0H182.324V7H189.774V0Z" fill="#F2B705"/>
<path id="Vector_20" d="M198.322 1.33435V5.66565H193.713V1.33435H198.322ZM199.742 0H192.293V7H199.742V0Z" fill="#F2B705"/>
</g>
<g id="Group_12">
<path id="Vector_21" d="M210.031 0H202.582V7H210.031V0Z" fill="#F2B705"/>
<path id="Vector_22" d="M218.58 1.33435V5.66565H213.971V1.33435H218.58ZM220 0H212.551V7H220V0Z" fill="#F2B705"/>
</g>
</g>
</g>
</g>
<defs>
<clipPath id="clip0_2050_306">
<rect width="220" height="7" fill="white"/>
</clipPath>
</defs>
</svg>
