<svg width="223" height="7" viewBox="0 0 223 7" fill="none" xmlns="http://www.w3.org/2000/svg">
<g clip-path="url(#clip0_2167_76)">
<path d="M9.4494 0H2V7H9.4494V0Z" fill="#F2B705"/>
<path d="M17.9979 1.33435V5.66565H13.3885V1.33435H17.9979ZM19.4179 0H11.9685V7H19.4179V0Z" fill="#F2B705"/>
<path d="M29.7072 0H22.2578V7H29.7072V0Z" fill="#F2B705"/>
<path d="M38.2557 1.33435V5.66565H33.6463V1.33435H38.2557ZM39.6757 0H32.2263V7H39.6757V0Z" fill="#F2B705"/>
<path d="M49.9653 0H42.5159V7H49.9653V0Z" fill="#F2B705"/>
<path d="M58.5138 1.33435V5.66565H53.9044V1.33435H58.5138ZM59.9338 0H52.4844V7H59.9338V0Z" fill="#F2B705"/>
<path d="M70.2231 0H62.7737V7H70.2231V0Z" fill="#F2B705"/>
<path d="M78.7716 1.33435V5.66565H74.1622V1.33435H78.7716ZM80.1916 0H72.7422V7H80.1916V0Z" fill="#F2B705"/>
<path d="M90.4838 0H83.0344V7H90.4838V0Z" fill="#F2B705"/>
<path d="M99.0323 1.33435V5.66565H94.4229V1.33435H99.0323ZM100.452 0H93.0029V7H100.452V0Z" fill="#F2B705"/>
<path d="M110.742 0H103.292V7H110.742V0Z" fill="#F2B705"/>
<path d="M119.29 1.33435V5.66565H114.681V1.33435H119.29ZM120.71 0H113.261V7H120.71V0Z" fill="#F2B705"/>
<path d="M131 0H123.55V7H131V0Z" fill="#F2B705"/>
<path d="M139.548 1.33435V5.66565H134.939V1.33435H139.548ZM140.968 0H133.519V7H140.968V0Z" fill="#F2B705"/>
<path d="M151.258 0H143.808V7H151.258V0Z" fill="#F2B705"/>
<path d="M159.806 1.33435V5.66565H155.197V1.33435H159.806ZM161.226 0H153.777V7H161.226V0Z" fill="#F2B705"/>
<path d="M171.516 0H164.066V7H171.516V0Z" fill="#F2B705"/>
<path d="M180.064 1.33435V5.66565H175.455V1.33435H180.064ZM181.484 0H174.035V7H181.484V0Z" fill="#F2B705"/>
<path d="M191.774 0H184.324V7H191.774V0Z" fill="#F2B705"/>
<path d="M200.322 1.33435V5.66565H195.713V1.33435H200.322ZM201.742 0H194.293V7H201.742V0Z" fill="#F2B705"/>
<path d="M212.031 0H204.582V7H212.031V0Z" fill="#F2B705"/>
<path d="M220.58 1.33435V5.66565H215.971V1.33435H220.58ZM222 0H214.551V7H222V0Z" fill="#F2B705"/>
</g>
<defs>
<clipPath id="clip0_2167_76">
<rect width="220" height="7" fill="white" transform="translate(2)"/>
</clipPath>
</defs>
</svg>
