<?xml version="1.0" encoding="UTF-8"?>
<svg id="_レイヤー_2" data-name="レイヤー 2" xmlns="http://www.w3.org/2000/svg" viewBox="0 0 238.92 69.94">
  <defs>
    <style>
      .cls-1 {
        fill: #231815;
      }

      .cls-1, .cls-2 {
        stroke-width: 0px;
      }

      .cls-2 {
        fill: #c30d23;
      }
    </style>
  </defs>
  <g id="_レイヤー_1-2" data-name="レイヤー 1">
    <g>
      <path class="cls-1" d="m103.22,19.54c.19-.04.41-.07.63-.07.26,0,.49.04.71.07.19.04.41.07.67.07.11,0,.26,0,.41-.04.11-.04.26-.04.37-.04.22,0,.45.04.67.11.19.07.41.15.63.19.26.04.56.07.86.11.26.04.56.11.82.15.19.04.34.11.52.15.15.07.3.15.48.19.11.04.26.07.49.11.22.04.45.11.63.15.19.07.37.15.56.26.15.11.22.26.22.41,0,.11-.04.26-.15.49-.11.26-.22.49-.37.71-.15.26-.3.45-.45.63-.19.19-.34.26-.45.26s-.22-.04-.34-.15c-.11-.07-.22-.11-.37-.11-.11,0-.22.15-.34.41-.15.3-.22.49-.22.6-.11.19-.19.37-.26.56s-.19.41-.3.6c-.34.49-.63,1.01-.93,1.49s-.63,1.01-.97,1.49c-.11.11-.19.26-.3.41-.11.19-.19.34-.19.49,0,.11.07.26.22.41.11.15.3.3.49.41.19.11.34.22.52.3.19.11.3.15.41.15.11.11.26.22.45.3.15.07.3.15.41.26.26.19.49.37.71.56.22.19.45.37.71.56.19.15.37.3.56.41.19.11.34.26.52.45.26.11.52.26.75.49.22.22.45.45.63.63.22.26.48.49.78.67.26.22.49.49.67.75.04.07.11.22.22.45.11.22.26.45.37.67.11.26.22.49.34.67.11.22.15.37.15.41.04.11.04.26.04.37v1.12c0,.07,0,.15-.04.19-.04.04-.04.11-.04.15,0,.15.04.3.08.45s.04.3.04.45c0,.19-.04.3-.15.34-.11.04-.3.07-.49.07-.11,0-.26,0-.37-.04h-.41c-.26,0-.52.04-.75.15-.26.11-.45.19-.56.19-.19,0-.26-.15-.3-.45-.04-.26-.08-.49-.08-.6s0-.15.04-.19c0-.07,0-.15.04-.22.04-.04.04-.11.04-.19s-.04-.26-.11-.52c-.07-.26-.15-.52-.26-.82-.11-.3-.19-.56-.3-.82s-.19-.41-.22-.49c-.19-.26-.37-.49-.63-.67-.26-.19-.49-.41-.75-.6-.3-.22-.67-.56-1.16-.97-.49-.41-1.01-.86-1.53-1.27-.56-.41-1.08-.75-1.61-1.08-.52-.3-.97-.45-1.34-.45-.19,0-.37.07-.49.19-.11.11-.26.26-.37.45-.11.15-.26.34-.52.6-.26.26-.52.52-.82.78-.34.26-.63.52-.9.78-.3.26-.52.45-.71.56-.19.11-.37.26-.56.41s-.37.3-.52.45c-.04.07-.11.15-.15.22-.08.07-.15.15-.26.19-.19.11-.37.19-.56.22-.19.07-.34.19-.52.3-.26.19-.49.37-.67.56-.19.19-.41.37-.67.52-.11.07-.22.15-.34.19-.11.04-.26.11-.37.15-.19.11-.37.22-.56.34-.19.11-.41.19-.6.3-.11.04-.22.07-.34.11-.11.04-.22.11-.34.15-.04,0-.15.04-.26.07-.11.07-.26.15-.37.22-.11.11-.26.19-.37.26-.11.11-.22.15-.3.19-.63.37-1.27.67-1.94.86-.67.19-1.34.41-2.05.6-.26.07-.52.19-.78.34-.3.19-.56.26-.82.26s-.45-.15-.56-.41c-.11-.19-.26-.49-.45-.86-.19-.34-.3-.63-.3-.86,0-.15.07-.26.22-.37.15-.11.34-.19.52-.26s.37-.15.56-.19c.19-.04.37-.11.49-.15.11-.04.22-.07.34-.07.11.04.22,0,.34-.04.04-.04.15-.07.3-.15.11-.07.26-.15.41-.22.11-.07.26-.15.37-.22.11-.07.15-.11.19-.15.19-.11.37-.19.56-.22.19-.04.41-.07.6-.11.11-.04.26-.11.37-.15.11-.04.22-.11.34-.15.41-.19.82-.41,1.2-.67.37-.22.78-.45,1.2-.63.19-.11.41-.26.6-.37.19-.11.41-.26.6-.37.11-.04.22-.11.3-.19.04-.07.11-.15.22-.22.19-.15.41-.26.63-.37.19-.11.41-.19.63-.3.11-.04.19-.11.26-.19s.15-.15.22-.19c.07-.07.15-.15.26-.19.08-.04.15-.07.26-.11.11-.04.19-.11.26-.19.04-.07.11-.15.22-.19.19-.11.3-.26.41-.41.07-.15.19-.3.3-.41.26-.3.56-.56.9-.78.3-.22.6-.49.86-.78.11-.11.22-.26.34-.45.11-.15.22-.3.34-.41.19-.19.37-.37.56-.52.19-.11.37-.3.52-.49.11-.19.22-.34.34-.49.11-.15.19-.3.3-.49.07-.11.19-.22.3-.3.11-.07.19-.19.26-.3.19-.26.34-.52.48-.82.11-.26.3-.52.49-.78.11-.19.3-.41.52-.75.19-.3.41-.63.6-1.01.19-.34.37-.67.52-1.01.11-.34.19-.6.19-.82,0-.11-.04-.15-.15-.15-.04.04-.15.04-.3.04s-.3,0-.41-.04c-.15-.04-.3-.04-.45-.04-.04-.04-.15-.04-.3-.04-.19,0-.41,0-.6.04-.19.04-.41.04-.6.04h-1.12c-.41.04-.78.04-1.16.04-1.01,0-2.02,0-3.03-.04h-3.02c-.11,0-.26,0-.37.04-.11.04-.26.07-.37.07-.22,0-.45-.04-.63-.07-.22-.04-.45-.04-.67-.04-.11,0-.26,0-.37.04-.11.04-.26.04-.37.04h-.26c-.15.04-.26,0-.3-.04-.34,0-.52-.15-.52-.41,0-.11,0-.22.04-.34.04-.11.04-.22.04-.34v-.9c0-.26.11-.45.3-.56.19-.07.37-.11.63-.11h1.72c.15,0,.3.04.41.07.11.04.26.07.41.07.19,0,.41,0,.6-.04.19-.04.37-.04.56-.04h1.08c.37,0,.75-.04,1.08-.07.34-.07.67-.11,1.01-.11.26,0,.49.04.75.07.22.04.45.07.71.07h1.68c.22,0,.45-.04.63-.11Z"/>
      <path class="cls-1" d="m146.95,19.69s.11.07.22.07c.26,0,.49,0,.71-.04.22-.04.45-.04.71-.04.3,0,.6.04.93.07.3.04.6.07.9.07h.75c.26.04.52.07.75.11.19.04.49.11.82.22.34.11.63.22.97.37s.6.34.86.52c.22.19.34.41.34.63,0,.11-.04.22-.11.41-.08.19-.15.34-.26.52-.11.19-.26.34-.37.45-.15.11-.26.19-.37.19s-.19-.04-.22-.11-.15-.11-.26-.11h-.07s-.04.04-.08.04c-.04.04-.11.15-.22.34s-.22.41-.34.63c-.11.26-.22.49-.34.67-.11.22-.15.34-.15.37v.11s-.04.11-.04.15c-.04.04-.04.11-.04.22-.04.22-.07.45-.19.67-.11.26-.22.49-.34.67-.07.11-.15.22-.19.34-.08.11-.15.22-.22.34-.11.11-.19.22-.3.26-.11.04-.22.15-.26.26-.15.34-.26.67-.37,1.01-.11.34-.26.67-.49.97-.34.49-.71.97-1.08,1.46-.41.49-.82.93-1.23,1.34-.19.19-.37.45-.56.71-.19.26-.37.52-.6.71-.26.26-.52.49-.78.67-.26.22-.56.45-.82.67-.34.26-.6.56-.86.86-.26.3-.6.56-.93.78-.15.11-.3.22-.49.3-.19.07-.34.19-.49.3-.19.11-.37.26-.52.45-.19.19-.37.34-.56.45-.15.11-.3.19-.49.26-.19.07-.34.15-.49.26-.26.15-.49.3-.67.45-.22.19-.45.34-.71.45-.11.04-.19.11-.22.19-.07.07-.15.15-.26.19-.26.19-.52.3-.82.34-.34.04-.6.15-.86.34-.11.07-.22.15-.3.22-.11.11-.22.19-.34.26-.6.34-1.23.63-1.87.82-.19.04-.34.11-.49.22-.15.11-.3.19-.45.26-.15.07-.3.11-.45.15-.19.04-.34.07-.49.15-.34.19-.75.37-1.2.56-.49.19-.9.26-1.31.26-.26,0-.49-.04-.63-.15-.19-.11-.3-.22-.41-.41-.11-.19-.22-.37-.3-.56-.07-.19-.15-.41-.26-.6-.04-.11-.08-.19-.11-.26s-.04-.15-.04-.26c0-.26.15-.41.49-.52.34-.11.56-.19.71-.26.56,0,1.12-.15,1.68-.49.56-.34,1.08-.6,1.57-.82.34-.15.75-.3,1.23-.45.45-.15.82-.3,1.08-.45.41-.22.82-.45,1.23-.63.41-.19.86-.34,1.27-.52.19-.07.37-.19.49-.3.11-.11.26-.19.45-.3.26-.15.52-.3.78-.45.26-.11.49-.3.75-.49.22-.19.45-.37.63-.56.19-.19.45-.34.71-.45.11,0,.3-.15.52-.41.19-.26.37-.41.52-.45.07-.07.19-.15.3-.19.11-.04.19-.11.3-.19.19-.15.34-.3.49-.49.11-.19.26-.34.41-.49.19-.19.45-.41.78-.75s.67-.67,1.01-1.05c.34-.34.63-.71.93-1.05.26-.34.45-.6.52-.78.08-.19.22-.41.49-.67.26-.22.45-.45.56-.63.22-.37.41-.78.52-1.19.11-.41.3-.82.49-1.23.15-.34.3-.6.45-.82.11-.19.22-.41.34-.6.08-.19.15-.45.19-.71.04-.26.08-.56.08-.97,0-.19-.04-.3-.11-.34-.11-.04-.22-.04-.34-.04-.26,0-.49,0-.71.04-.26.04-.49.07-.75.07-.56,0-1.12-.04-1.68-.07-.56-.04-1.08-.07-1.64-.07h-.93c-.19.04-.37.04-.52.04-.15.04-.26.04-.34.07-.11.04-.19.11-.22.19-.07.07-.15.15-.22.22-.19.19-.3.37-.37.56-.11.19-.22.34-.34.49-.11.15-.26.3-.41.41-.19.11-.34.26-.49.41-.3.34-.6.63-.86.93-.3.34-.6.63-.9.93-.19.19-.41.34-.67.45-.26.11-.49.26-.67.45-.26.26-.6.6-1.01.93s-.82.63-1.19.82c-.11.04-.19.11-.26.15-.11.04-.19.11-.3.19-.15.11-.26.15-.34.19-.37.11-.75.3-1.12.49-.41.22-.78.45-1.12.67-.11.07-.26.11-.37.15-.11.04-.26.11-.37.19-.19.11-.41.26-.6.41-.22.19-.45.26-.63.26s-.37-.07-.52-.22c-.19-.11-.34-.3-.45-.49-.11-.19-.22-.41-.3-.63-.08-.22-.11-.41-.11-.56,0-.19.08-.34.19-.45.11-.11.22-.19.41-.3.11-.07.26-.15.41-.22.11-.04.26-.11.37-.15.15-.04.3-.15.41-.26.11-.11.22-.19.37-.22.26-.11.49-.19.67-.3.19-.07.41-.19.64-.3.19-.11.37-.26.52-.41.15-.11.34-.26.52-.37.34-.22.78-.49,1.27-.75.49-.26.86-.56,1.12-.82.45-.45.93-.9,1.42-1.31.26-.26.52-.52.75-.78.19-.26.41-.56.67-.82.45-.52.82-.97,1.08-1.34.26-.34.52-.71.75-1.08.19-.34.37-.75.56-1.19.15-.41.34-.97.56-1.61.04-.19.11-.41.19-.6.07-.19.11-.37.11-.56v-.37c-.04-.11-.04-.26-.04-.37,0-.19.04-.41.08-.6.04-.19.19-.26.45-.26.08-.04.19-.07.34-.07.11.04.22.04.3.04.19,0,.45.04.86.07.37.04.63.15.75.26.08.07.11.19.15.3v.37c0,.56-.07,1.16-.19,1.72-.15.56-.22,1.16-.22,1.72,0,.34.07.56.26.63.19.11.41.15.71.15h1.53c.11,0,.15,0,.19.04l.11.04Zm6.5-1.79c-.04.11-.11.19-.22.22-.11.04-.22.07-.37.04-.15-.04-.34-.04-.56-.04h-.41c-.07,0-.11,0-.15.04-.04,0-.11,0-.15.04-.04.04-.11.04-.15.04-.11,0-.15-.04-.15-.11,0-.26,0-.56-.04-.82-.04-.26-.07-.52-.07-.78v-.6c-.04-.19,0-.41.04-.6.04-.15.08-.26.08-.37.04-.04.04-.15.04-.26v-1.19c0-.15,0-.3-.04-.49-.04-.15-.04-.3-.04-.49,0-.07,0-.19.04-.34.04-.11.07-.19.19-.19.15,0,.3.04.41.11h.52c.11,0,.22,0,.34-.04.11-.04.22-.04.34-.04.19,0,.3.07.3.26v.11c-.08.11-.11.26-.11.37v.41c0,.15.04.34.07.52.04.22.08.45.08.67,0,.34,0,.63-.04.93-.04.3-.04.6-.04.93,0,.19.04.37.08.52s.07.34.07.52c0,.26,0,.49-.04.6Zm4.22.15c-.3.11-.67.19-1.12.19-.22,0-.41-.04-.52-.11-.11-.04-.19-.22-.19-.49,0-.15,0-.3.04-.49v-.45c0-.19-.04-.37-.07-.56-.04-.19-.08-.37-.08-.56,0-.41.04-.86.11-1.27.04-.3.08-.6.11-.9v-.9c0-.19,0-.3.04-.37.04-.04.08-.07.15-.11.04-.04.11-.04.15-.04h1.08c.19.04.41.04.6.04,0,.11,0,.19-.04.26-.04.07-.07.19-.07.3,0,.19.04.37.07.56.04.19.08.37.08.56v.45c-.04.15-.04.3-.04.45,0,.19,0,.41.04.63.04.22.04.45.04.63,0,.11,0,.26-.04.37-.04.11-.04.26-.04.37s.04.19.07.26.04.15.04.26c0,.49-.15.78-.41.9Z"/>
      <path class="cls-1" d="m171.75,42.2v-.71c0-.11,0-.22.04-.34.04-.07.04-.19.04-.3v-7.32c0-.07,0-.15-.04-.22s-.04-.15-.04-.22c0-.6,0-1.19.04-1.83.04-.6.04-1.19.04-1.79,0-.15,0-.3-.04-.45-.04-.11-.07-.26-.07-.37,0-.45.04-.9.07-1.34s.04-.9.04-1.34v-.34c-.04-.15-.04-.3-.04-.49-.04-.15-.04-.3-.07-.41-.04-.11-.11-.19-.15-.19-.08,0-.15.04-.19.07-.26.19-.56.34-.82.52-.3.19-.6.37-.86.56-.41.26-.86.52-1.31.75l-1.34.67c-.07.04-.15.11-.22.19-.11.07-.19.11-.3.11s-.22-.11-.41-.3c-.19-.19-.34-.37-.49-.63-.19-.26-.34-.49-.45-.75-.11-.26-.19-.41-.19-.52,0-.15.08-.26.22-.34.07-.04.19-.07.34-.19.15-.07.3-.15.49-.26.19-.07.34-.15.49-.22.15-.04.26-.07.34-.07.11-.04.22-.11.34-.22.11-.11.26-.19.45-.22.11-.04.22-.11.34-.22.11-.07.22-.15.34-.19.19-.07.37-.15.52-.26.11-.11.26-.22.45-.34.08-.04.15-.11.26-.15.08-.04.15-.11.22-.15.41-.26.86-.52,1.27-.82.41-.3.86-.6,1.27-.86.49-.34,1.01-.75,1.53-1.23.49-.49.97-.93,1.38-1.34.07-.11.22-.26.45-.45.22-.19.37-.34.41-.37.11-.07.26-.19.41-.37.11-.15.22-.3.3-.41.04-.04.04-.07.07-.11.04,0,.07-.04.11-.07.15-.11.3-.3.41-.52.11-.19.26-.37.37-.52.11-.19.26-.34.45-.49.15-.11.3-.3.41-.49.11-.15.26-.37.45-.71s.34-.56.37-.67c.22-.22.37-.37.45-.49.04-.11.26-.15.6-.15.11,0,.19,0,.26-.04.19,0,.41,0,.63-.04h.67c.19,0,.41,0,.67.04.26.04.45.15.56.26.11.11.22.26.34.41.11.19.22.34.34.45.15.15.3.3.41.45s.26.3.41.45c.63.71,1.34,1.46,2.09,2.17.75.71,1.53,1.34,2.31,1.9.11.07.26.19.41.3.11.15.22.26.34.3.04.07.15.15.3.22.15.11.26.19.37.22.41.3.86.6,1.27.93.41.34.86.56,1.34.75.19.07.41.19.6.34.19.19.37.3.6.41.3.15.6.3.93.41.34.11.63.3.9.49.41.26.86.49,1.31.6.45.15.86.37,1.27.63.07.04.11.11.15.22.04.11.04.19.04.26,0,.11-.04.26-.11.41-.07.15-.15.3-.26.45-.11.19-.22.34-.34.45-.11.15-.22.26-.26.37-.15.22-.37.34-.63.34-.15,0-.49-.15-1.05-.41-.56-.26-1.16-.6-1.79-.93s-1.23-.67-1.79-1.01c-.56-.34-.93-.52-1.08-.6-.04.15-.07.3-.07.41,0,.34.04.71.07,1.05.04.34.04.71.04,1.05,0,.11,0,.19-.04.26-.04.11-.07.22-.07.34,0,.34.04.71.07,1.08.04.37.04.75.04,1.08v.11s-.04.11-.07.15c-.04.11-.08.34-.04.67v.78c0,.26,0,.49.04.71.04.26.04.49.04.75s0,.52-.04.75c-.04.26-.04.52-.04.78v.45c0,.19.04.34.11.41.04,0,.15-.07.26-.19.11-.11.26-.22.41-.37.15-.15.3-.3.45-.45.15-.11.26-.22.37-.26.11,0,.26.07.52.19.22.15.45.34.71.52.26.19.49.41.67.6.19.19.26.34.26.45s-.04.22-.15.26c-.11.07-.19.15-.26.19-.34.3-.75.63-1.2,1.05s-.86.71-1.27.93c-.3.19-.6.37-.9.56-.34.22-.6.45-.86.67-.19.22-.49.41-.86.6-.41.19-.75.41-1.01.6-.04.04-.11.07-.15.11-.08.04-.11.07-.11.15,0,.19.26.37.78.63.49.26,1.08.49,1.75.75.63.26,1.27.49,1.9.67.6.22,1.01.37,1.19.45.19.11.45.15.71.11.26,0,.49.04.71.15.11.04.3.07.56.11.26.04.49.11.75.15.26.04.49.11.67.15.19.07.3.15.3.26s-.07.34-.22.6-.3.52-.49.82c-.19.26-.41.52-.6.75-.22.19-.37.3-.49.3h-.22c-.08-.04-.15,0-.19.04-.26-.11-.56-.22-.86-.34-.3-.11-.6-.19-.86-.26-.08-.04-.15-.04-.22-.04-.11,0-.19-.04-.22-.07-.19,0-.41-.04-.67-.15-.26-.11-.52-.22-.71-.26-.41-.11-.82-.26-1.19-.41-.37-.15-.78-.3-1.2-.49-.11-.07-.26-.15-.41-.22-.15-.11-.3-.19-.45-.26-.22-.11-.45-.22-.71-.34-.26-.11-.49-.22-.67-.34-.34-.19-.63-.41-.93-.63-.3-.19-.6-.41-.93-.6-.26-.19-.63-.49-1.05-.9-.45-.41-.82-.71-1.08-.93-.56-.52-1.12-1.08-1.64-1.64-.19-.19-.34-.45-.49-.71-.19-.37-.45-.78-.71-1.19-.26-.41-.56-.75-.82-1.08-.04-.04-.04-.07-.07-.11-.04-.04-.11-.04-.15-.04-.52,0-1.05,0-1.53.04-.52.04-1.04.04-1.57.04-.26,0-.52,0-.78-.04-.26-.04-.56-.04-.82-.04-.19,0-.34.04-.37.11-.08.07-.11.22-.11.41s0,.34.04.49c.04.19.04.34.04.52,0,.11,0,.22-.04.34-.04.11-.04.22-.04.34,0,.26,0,.56.04.82.04.26.04.56.04.82,0,.07,0,.15-.04.22-.04.07-.04.15-.04.22,0,.11,0,.22.04.3.04.07.04.19.04.3s0,.19-.04.26c-.04.07-.04.15-.04.22,0,.34.04.71.08,1.05.04.34.04.71,0,1.08.26-.04.52-.11.78-.15.22-.04.49-.11.75-.15.34-.04.63-.11.97-.22.3-.11.6-.15.93-.15.22,0,.45-.04.67-.11.19-.07.41-.11.63-.11.11-.04.15-.07.19-.07.04-.04.19-.04.41-.07.22,0,.37,0,.45-.04.37-.07.78-.19,1.2-.34.41-.11.78-.19,1.16-.22.11,0,.22-.04.34-.07.07-.04.19-.07.3-.07.07,0,.15.07.19.19.04.15.11.3.15.49.04.19.04.34.07.52.04.19.04.3.04.34v.15s-.04.11-.04.22c-.04.04-.04.07-.04.11s0,.07-.04.11c-.04.11-.08.15-.19.19-.19.04-.41.11-.63.19-.22.07-.45.15-.67.19-.22.04-.45.11-.67.15-.22.04-.45.11-.67.15-.07.04-.37.15-.86.3-.49.11-1.05.26-1.64.41-.6.11-1.16.26-1.68.37-.56.11-.9.19-1.05.22-.11.04-.22.04-.34.04s-.22.04-.34.07c-.71.26-1.38.41-2.05.49-.3.04-.6.11-.86.22-.3.07-.6.15-.93.19-.04.04-.15.04-.26.07-.15,0-.26-.04-.3-.07-.26.07-.52.15-.75.22-.26.07-.52.11-.78.11-.04.04-.15.04-.26.04-.19,0-.37-.07-.56-.26-.19-.19-.34-.41-.45-.67-.15-.26-.26-.52-.34-.78-.11-.26-.15-.49-.15-.63,0-.07,0-.15.04-.22s.07-.11.19-.15c.26-.11.6-.15.93-.19s.67-.04.97-.07c.11,0,.34-.04.6-.11s.41-.07.52-.04h.11c.19,0,.34-.04.52-.11.15-.07.3-.11.49-.11.04-.22.08-.45.11-.67Zm16.69-17.4c-.26-.04-.52-.07-.82-.11-.34-.04-.63-.04-.93-.04h-.56c-.26,0-.56,0-.82.04-.26.04-.56.04-.82.04s-.56,0-.82-.04c-.26-.04-.56-.04-.82-.04-.11,0-.22,0-.3.04s-.19.04-.3.04h-3.44c-.19,0-.34,0-.49-.04-.15-.04-.3-.04-.45-.04-.11,0-.22,0-.34.04-.11.04-.26.04-.37.04h-2.13c-.11.04-.22.04-.34.07-.11.04-.15.07-.15.11t-.04.07c0,.11,0,.19.04.26v.26s.04.15.04.3c0,.11,0,.19-.04.26-.04.11-.04.19-.04.3,0,.07,0,.15.04.19v.22c0,.26,0,.41.04.52,0,.11.15.15.41.15s.56-.04.82-.07c.26-.04.56-.04.82-.04.49,0,.93,0,1.42.04.49.04.93.07,1.42.07.08,0,.15,0,.22-.04.07-.04.15-.04.26-.04s.22,0,.34.04c.07.04.19.04.3.04.26,0,.56-.04.82-.07.26-.04.56-.04.82-.04.63,0,1.31,0,1.94.04.63.04,1.31.04,1.94.04.41,0,.86,0,1.31-.04.45-.04.9-.04,1.31-.04t.07-.04h.04c.04-.11.04-.26.04-.45s0-.37-.04-.56c-.04-.19-.07-.37-.07-.56,0-.11,0-.22.04-.34v-.26c0-.15-.11-.26-.37-.34Zm-.97,4.85h-.08s-.07.04-.11.04c-.19,0-.41-.04-.6-.07-.19-.04-.41-.04-.6-.04s-.37,0-.52.04c-.19.04-.37.07-.56.07-.56,0-1.16,0-1.72-.04-.56-.04-1.16-.04-1.72-.04h-.22c-.11.04-.19.04-.26.04h-.26s-.26-.04-.63-.07c-.41,0-.82,0-1.31-.04h-2.2c-.11,0-.19,0-.26.04s-.15.07-.26.07c-.56,0-.97.04-1.23.15-.26.11-.41.49-.41,1.16,0,.19,0,.41.04.6v.6s.04.07.08.19c.04.11.07.19.11.15h.11c.11,0,.26,0,.37.04.11.04.26.04.37.04h1.72c.11,0,.19-.04.26-.07.08-.04.15-.04.22-.04h2.2c.11,0,.19,0,.3.04.07.04.19.07.3.07.19,0,.37-.04.56-.07.15-.04.34-.04.52-.04s.37,0,.56.04c.19.04.37.07.56.07.22,0,.45,0,.67-.04.19-.04.41-.04.63-.04.15,0,.3,0,.45.04.15.04.3.07.45.07.19,0,.34,0,.52-.04h.49c.3,0,.63,0,.97-.04.34,0,.63-.04.93-.15.26-.07.49-.22.67-.45.19-.19.26-.52.26-.93,0-.49-.04-.86-.15-1.08-.11-.19-.45-.3-1.01-.3-.11,0-.19,0-.22.04Zm-7.13-7.5s-.04-.11-.04-.15c0-.19.04-.37.07-.56.04-.15.04-.34.04-.52v-.93c-.04-.3-.04-.6-.04-.9,0-.19.15-.26.49-.3.3-.04.49-.04.6-.04.78,0,1.27.19,1.42.6s.22.97.22,1.64v1.01c0,.15.04.22.08.26.04.04.11.07.22.07.04-.04.11-.04.19-.04.26,0,.56,0,.82.04.26.04.56.07.82.07.11,0,.19,0,.26-.04.08-.04.15-.04.26-.04.15,0,.3,0,.45.04.15.04.3.04.45.04.11,0,.26-.04.37-.07.11-.04.26-.04.37-.04.37,0,.75,0,1.12.04.37.04.75.04,1.12.04h.19s.11.04.15,0c-.04-.11-.19-.19-.37-.3-.22-.11-.41-.19-.52-.26-.11-.11-.26-.22-.37-.34-.11-.11-.26-.19-.37-.3-.15-.11-.3-.22-.45-.34-.15-.11-.3-.19-.45-.3-.63-.49-1.23-.97-1.79-1.53-.56-.56-1.16-1.08-1.72-1.64-.11-.07-.26-.22-.49-.49-.22-.26-.45-.52-.67-.78-.26-.26-.49-.49-.67-.71-.22-.19-.37-.3-.45-.3s-.15.07-.26.19c-.11.15-.26.3-.37.49s-.26.34-.37.49c-.11.19-.22.3-.3.37-.26.19-.49.49-.75.82-.26.37-.52.71-.71.97-.41.45-.82.86-1.23,1.23-.41.41-.86.82-1.27,1.23-.04.04-.11.11-.15.19-.07.07-.15.15-.19.19-.04.04-.15.11-.26.19-.11.07-.26.15-.37.22-.11.11-.22.19-.34.3-.11.11-.15.22-.15.3.11.07.3.11.56.11.26.04.45.04.6.04.11,0,.19,0,.3-.04.07-.04.15-.04.26-.04h3.73s0-.11-.04-.19Zm10.6,12.77c-.11,0-.26,0-.37-.04-.15-.04-.3-.04-.41-.04-.52,0-1.04,0-1.53.04-.52.04-1.05.04-1.57.04h-3.32c-.11,0-.19,0-.22-.04-.08-.04-.15-.04-.26-.04-.19,0-.34,0-.45.04.04.07.11.19.26.34.11.11.19.26.26.37.07.11.19.26.3.37.11.11.26.3.52.56.22.26.49.56.78.82.26.3.56.56.82.78.26.22.45.37.56.41.22-.11.49-.26.78-.45.26-.19.56-.41.86-.63.3-.22.6-.45.9-.67.26-.22.52-.41.78-.56.11-.07.26-.19.37-.34.11-.15.26-.3.37-.41.04,0,.19-.07.37-.26.19-.15.34-.26.37-.3h-.19Z"/>
      <path class="cls-1" d="m217.23,23.53c-.15,0-.37.07-.63.19-.26.15-.56.3-.86.49s-.56.41-.82.6c-.26.19-.41.34-.49.45-.11.11-.22.26-.3.37-.08.11-.19.26-.3.37-.19.19-.41.37-.63.49-.22.11-.41.26-.6.45-.11.11-.22.22-.34.34-.11.11-.26.22-.37.34-.41.26-.82.52-1.16.75-.37.22-.78.41-1.23.6-.11.04-.3.11-.56.22-.26.11-.45.15-.56.15-.26,0-.6,0-.97-.04-.37,0-.75-.04-1.08-.15-.34-.07-.63-.22-.9-.41-.26-.19-.37-.49-.37-.82,0-.37.11-.75.34-1.12.22-.37.56-.56.97-.56.26,0,.52.04.78.11.22.07.49.11.75.11s.56-.04.93-.15c.37-.11.67-.22.86-.34s.37-.3.52-.49c.11-.19.26-.34.45-.49.34-.3.71-.6,1.05-.93.34-.3.63-.6.97-.93.11-.11.26-.22.37-.26.11-.04.22-.11.26-.19.11-.11.22-.22.34-.34.07-.11.19-.22.3-.34.19-.19.41-.34.75-.49.3-.11.63-.22.97-.34.34-.11.67-.19,1.01-.22.34-.04.6-.07.82-.07,1.23,0,2.28.22,3.14.67.82.45,1.61,1.16,2.39,2.09.19.26.37.49.52.75.11.26.3.49.49.75.15.22.34.45.52.67s.37.41.56.6c.19.15.37.34.52.52.19.26.41.56.6.82.19.3.37.56.6.82.34.34.67.67,1.05.93.37.3.75.6,1.08.9.41.37.86.71,1.27,1.05.41.34.86.63,1.34.93.19.11.37.19.56.19.19.04.41.07.6.19.45.22.97.41,1.57.52.56.11,1.12.22,1.61.26.26.04.56.07.82.11.26.04.56.07.82.07.11,0,.22,0,.34-.04h.56c.08,0,.15.04.19.11.11.07.19.26.19.56-.04.3-.04.52,0,.63.04.04.04.11.07.15.04.07.04.15.04.19,0,.11-.04.22-.07.34-.04.11-.11.26-.15.37-.19.45-.45.67-.75.71-.3.04-.67.07-1.08.07-.34,0-.67-.07-1.01-.22-.34-.11-.63-.19-.86-.19-.04.04-.11.07-.22.04h-.22c-.07,0-.22-.04-.49-.11-.26-.04-.56-.11-.86-.19-.3-.07-.56-.15-.82-.22-.26-.07-.45-.11-.52-.15-.11-.04-.26-.11-.37-.22-.11-.11-.26-.19-.41-.22-.19-.04-.41-.11-.71-.22-.34-.07-.52-.19-.63-.34-.26-.15-.49-.3-.75-.41-.26-.11-.49-.26-.71-.45-.49-.34-.93-.71-1.34-1.08-.45-.37-.9-.78-1.31-1.19-.11-.11-.19-.22-.26-.34-.07-.11-.15-.19-.26-.3-.63-.63-1.23-1.38-1.83-2.24-.07-.11-.11-.22-.15-.34-.04-.11-.07-.22-.19-.34-.19-.26-.49-.63-.82-1.12-.34-.45-.71-.9-1.08-1.38-.41-.45-.78-.86-1.19-1.23-.41-.34-.75-.56-1.05-.67-.37-.11-.75-.15-1.12-.15h-.45Zm14.41-.11c-.11.07-.22.11-.34.11-.11.04-.26.04-.41,0h-.37c-.11,0-.22,0-.34.04-.11.04-.22.04-.34.04-.07,0-.11-.07-.15-.22-.04-.11-.08-.26-.08-.45-.04-.15-.04-.3-.04-.45-.04-.15-.04-.26-.04-.3-.04-.04-.04-.15-.04-.26,0-.34.04-.71.08-1.08.04-.34.07-.71.07-1.05v-1.12c0-.07,0-.15-.04-.19v-.22s-.04-.11-.04-.19c0-.15.04-.3.07-.49.04-.19.15-.26.34-.26h.34c.15.04.26.04.3.07h.37c.19.04.3,0,.37-.04h.22c.08.04.11.07.11.19,0,.04,0,.11-.04.19s-.04.15-.04.19c-.04.04-.04.07-.04.19,0,.26.04.52.11.78.04.26.08.52.08.78,0,.34-.04.67-.08.97-.04.34-.07.67-.07,1.01,0,.22.04.45.07.63s.08.45.08.78c0,.15-.04.26-.15.34Zm2.65.19s-.07,0-.11-.04c-.04,0-.08-.04-.08-.11v-.22c0-.11,0-.26.04-.41.04-.15.04-.3.04-.41,0-.3-.04-.6-.08-.9s-.07-.6-.07-.9c0-.19.04-.41.07-.6.04-.19.08-.37.08-.56v-1.49c0-.26.07-.41.22-.49.15-.04.34-.07.52-.07h1.05c.19,0,.3.04.26.11-.04.11-.04.22-.04.34,0,.26.04.49.08.71s.04.45.04.71v.37c-.04.15-.04.3-.04.41s.04.22.07.3c.04.11.04.22.04.34,0,.15,0,.3-.04.41-.04.15-.04.3-.04.45,0,.19,0,.41.04.63v.97c0,.07-.04.15-.15.19-.11.04-.26.07-.37.11-.15.04-.3.07-.41.11-.15.04-.26.04-.3.04h-.82Z"/>
    </g>
    <g>
      <path class="cls-2" d="m41.21,55.12c-.26-.36-.78-1.54-1.25-1.58-1.1-.09-1.2-1.66-.3-1.87,0-.03-.03-.05-.03-.08,0-.08.04-.11.11-.15.04-.04.11-.08.15-.11.26-.19.6-.41,1.02-.6.38-.19.68-.38.87-.6.26-.23.53-.45.87-.68l.9-.57c.42-.23.83-.53,1.28-.94.45-.42.87-.75,1.21-1.06.08-.04.15-.11.26-.19.11-.04.15-.15.15-.26s-.08-.26-.26-.45c-.19-.19-.42-.41-.68-.6-.26-.19-.49-.38-.72-.53-.26-.11-.42-.19-.53-.19-.11.04-.23.15-.38.26l-.45.45c-.15.15-.3.26-.41.38-.11.11-.23.19-.26.19-.08-.08-.11-.23-.11-.41v-.45c0-.26,0-.53.04-.79.04-.23.04-.49.04-.75s0-.49-.04-.75c-.04-.23-.04-.45-.04-.72v-.79c-.04-.34,0-.57.04-.68.04-.04.04-.11.08-.15v-.11c0-.34,0-.72-.04-1.09-.04-.38-.08-.75-.08-1.09,0-.11.04-.23.08-.34.04-.08.04-.15.04-.26,0-.34,0-.72-.04-1.06-.04-.34-.08-.72-.08-1.06,0-.11.04-.26.08-.42.04.02.09.05.16.08-.58-.92-.4-1.97-.24-3.35,0,0,.01,0,.02,0,0-.04,0-.08,0-.12-.35-.27-.71-.52-1.05-.76-.11-.04-.23-.11-.38-.23-.15-.08-.26-.15-.3-.23-.11-.04-.23-.15-.34-.3-.15-.11-.3-.23-.42-.3-.79-.57-1.58-1.21-2.34-1.92-.75-.72-1.47-1.47-2.11-2.19-.15-.15-.3-.3-.41-.45s-.26-.3-.42-.45c-.11-.11-.23-.26-.34-.45-.11-.15-.23-.3-.34-.41s-.3-.23-.57-.26-.49-.04-.68-.04h-.68s-.1,0-.14.01c-.23-.06-.45-.1-.69-.13,0-.09,0-.19-.02-.32-.08-.34-.15-.68-.23-1.09-.11-.41-.19-.79-.3-1.17-.11-.34-.23-.6-.26-.72-.04-.08-.11-.19-.23-.34-.11-.11-.15-.23-.15-.3,0-.34,0-.72.04-1.06.04-.34.04-.72.04-1.06,0-.26.04-.49.08-.72.04-.23.08-.45.08-.72,0-.11-.04-.3-.15-.57.04-.11.04-.3.08-.53.04-.23.11-.38.23-.42.04,0,.23,0,.6-.04.34,0,.75,0,1.21-.04h1.96c.19,0,.38,0,.57.04.15.04.34.08.53.08.38,0,.75,0,1.09-.04.34-.04.72-.04,1.09-.04h.98c.3.04.6.04.94.04.19,0,.38,0,.57-.04s.38-.04.57-.04.42,0,.6.04.38.04.57.04c.26,0,.57,0,.87-.04.26-.04.41-.23.41-.6v-.34c-.04-.11-.04-.23-.04-.34s0-.26.04-.41v-.45c-.04-.11-.08-.23-.11-.34-.08-.08-.19-.11-.34-.11h-.42c-.15.04-.3.04-.45.04-.26,0-.49-.04-.68-.08-.23-.04-.45-.04-.68-.04-.04-.04-.15-.04-.26-.04s-.26.04-.38.08c-.11.04-.26.08-.38.08s-.23,0-.34-.04-.23-.04-.34-.04h-1.02c-.19,0-.34,0-.49.04s-.3.04-.45.04c-.23,0-.45-.04-.64-.11-.19-.04-.41-.08-.64-.08-.19,0-.41.04-.64.08-.23.04-.45.08-.64.08h-2.26c-.72,0-1.17-.11-1.43-.3s-.38-.64-.38-1.36v-.53c0-.19.04-.38.11-.57.04-.15.08-.34.08-.53,0-.34,0-.68-.04-1.02-.04-.3-.04-.64-.04-.98,0-.19,0-.41.04-.6.04-.19.04-.38.04-.57s-.04-.34-.11-.42c-.08-.04-.23-.08-.42-.08h-.57c-.19.04-.38.04-.57.04-.49,0-.79.04-.94.08-.15.04-.23.34-.23.83,0,.15,0,.3.04.45v.45c0,.26,0,.49-.04.72-.04.23-.08.45-.08.72,0,.34.04.64.11.94.08.3.11.6.11.94,0,.11-.04.23-.08.34-.08.15-.11.38-.11.64,0,.23-.04.41-.15.53-.19.11-.38.15-.6.15-.26.04-.49.04-.75.04-.26.04-.49.08-.75.11-.15.04-.26.08-.38.08-.34,0-.64-.04-.83-.11-.23-.04-.45-.08-.68-.08h-2c-.11,0-.19,0-.26.04-.11.04-.19.04-.3.04-.15,0-.3,0-.42-.04h-.45c-.15,0-.3,0-.41.04s-.26.04-.42.04-.3-.04-.45-.08c-.15-.04-.3-.08-.49-.08-.3,0-.6,0-.91.04-.3.04-.6.08-.9.08h-4.87c-.08,0-.19,0-.34-.04h-.45c-.19,0-.34,0-.45.04s-.19.11-.23.19c-.04.08-.04.19-.04.34,0,.19.04.41.11.6.04.23.08.45.08.64,0,.08,0,.15-.04.19,0,.04,0,.11-.04.15-.04.08-.04.15-.04.19,0,.19.15.26.45.3.26.04.49.04.6.04.19,0,.42,0,.64-.04h.64c.26,0,.49,0,.75.04.23.04.45.04.72.04.11,0,.19,0,.26-.04.04-.04.11-.04.23-.04h.3c.15.04.3.04.49.04h.45c.11,0,.23,0,.26-.04h.23c.19,0,.34,0,.53.04.15.04.3.04.49.04.15,0,.3,0,.45-.04.11,0,.26,0,.41-.04.53-.08,1.09-.11,1.66-.08.57.04,1.09.04,1.62.04h2.49c.79.04,1.62.04,2.45.04.11,0,.23,0,.34-.04.11-.04.23-.04.34-.04.3,0,.49.04.57.11.08.08.11.26.11.53,0,.34,0,.68-.04,1.02-.04.34-.08.72-.08,1.06v.26s.04.08.04.11,0,.08.04.11v.11c0,.11-.04.19-.15.23-.11.04-.19.04-.3.04-.19,0-.34,0-.49-.04-.15-.04-.3-.04-.49-.04h-.45c-.15,0-.3.04-.42.08-.19.08-.38.15-.57.19-.19.08-.34.19-.53.3-.49.34-.98.72-1.47,1.17-.49.49-.87.98-1.09,1.51-.11.3-.23.64-.3,1.06-.08.42-.11.75-.11,1.09v.72c0,.26.04.49.08.68.11.72.42,1.4.83,2.04s.94,1.13,1.62,1.4c.15.04.3.11.45.19.15.11.3.15.49.15s.34-.08.53-.19c.15-.11.26-.3.38-.49.11-.19.19-.38.26-.6.04-.19.08-.38.08-.53,0-.26-.08-.45-.26-.6-.19-.11-.41-.26-.64-.45-.23-.19-.41-.38-.6-.64-.19-.23-.3-.57-.3-.98,0-.34.04-.68.11-1.09.08-.42.19-.79.38-1.13.19-.34.41-.6.68-.87.26-.23.64-.34,1.06-.34.34,0,.64.08.94.23.26.19.53.38.75.64.19.26.38.53.49.83.11.34.19.64.19.94,0,.11,0,.23-.04.34-.04.11-.04.23-.04.34-.04.04-.04.15-.04.26s.04.23.08.34c.04.11.04.26.04.41,0,.26-.04.53-.08.83-.08.3-.15.57-.26.83-.08.23-.19.53-.34.87-.19.38-.34.75-.53,1.13s-.34.72-.53,1.06-.38.6-.53.75l-1.58,1.58c-.11.11-.26.23-.45.26-.19.08-.34.19-.49.3-.34.26-.72.49-1.06.68s-.72.38-1.13.57c-.11.04-.23.11-.3.15-.11.04-.23.11-.34.15-.19.08-.38.11-.57.11s-.34.04-.53.15-.41.23-.68.3-.53.11-.79.11c-.3,0-.6.08-.94.19-.04.04-.19.08-.38.11-.19.08-.3.15-.3.23,0,.04.04.11.15.23.11.11.19.23.23.34.08.19.19.49.3.87s.26.64.38.79c.04.08.19.11.38.11.26,0,.53-.04.72-.11.19-.11.38-.19.64-.26.19-.04.41-.08.6-.11.19-.04.42-.08.6-.11.11-.04.23-.11.34-.19.11-.08.23-.15.34-.19.15-.04.3-.08.45-.08.15-.04.3-.08.45-.11.03,0,.06-.02.09-.03.01.09.02.18.05.27,0,.19,0,.34.04.49v.34c0,.45,0,.91-.04,1.36-.04.45-.08.9-.08,1.36,0,.11.04.26.08.38.04.15.04.3.04.45,0,.6,0,1.21-.04,1.81-.04.64-.04,1.24-.04,1.85,0,.08,0,.15.04.23.04.08.04.15.04.23v7.39c0,.11,0,.23-.04.3-.04.11-.04.23-.04.34v.72c-.04.23-.08.45-.11.68-.19,0-.34.04-.49.11-.19.08-.34.11-.53.11h-.11c-.11-.04-.26-.04-.53.04-.03,0-.05.01-.07.02.05.11.09.23.1.35.12.07.24.16.33.3.35.54.84.86,1.41,1.03.74,0,1.47-.04,2.21-.09.1-.07.19-.13.29-.2,0-.07,0-.13.02-.2.13-.63.25-1.26.38-1.89,0-.05.04-.09.06-.13-.02,0-.05.01-.07.01.04-.38.04-.75,0-1.09-.04-.34-.08-.72-.08-1.06,0-.08,0-.15.04-.23s.04-.15.04-.26,0-.23-.04-.3-.04-.19-.04-.3c0-.08,0-.15.04-.23s.04-.15.04-.23c0-.26,0-.57-.04-.83s-.04-.57-.04-.83c0-.11,0-.23.04-.34s.04-.23.04-.34c0-.19,0-.34-.04-.53-.04-.15-.04-.3-.04-.49s.04-.34.11-.41c.04-.08.19-.11.38-.11.26,0,.57,0,.83.04.26.04.53.04.79.04.53,0,1.06,0,1.58-.04.49-.04,1.02-.04,1.55-.04.04,0,.11,0,.15.04.04.04.04.08.08.11.26.34.57.68.83,1.09.26.42.53.83.72,1.21.15.26.3.53.49.72.53.57,1.09,1.13,1.66,1.66.26.23.64.53,1.09.94.41.41.79.72,1.06.91.34.19.64.41.94.6.3.23.6.45.94.64.19.11.41.23.68.34s.49.23.72.34c.15.08.3.15.45.26.15.08.3.15.41.23.41.19.82.34,1.2.49-.31-.27-.58-.58-.83-.92Zm-13.55-21.72c.19-.19.38-.41.53-.6.15-.19.3-.38.49-.6.15-.23.38-.53.64-.87.11-.11.23-.26.34-.38.11-.11.19-.23.26-.34.15-.26.34-.64.53-1.09s.34-.94.49-1.47c.15-.49.3-.98.42-1.47.01-.05.02-.09.03-.14.5-.01.99.05,1.46.23.06.05.12.09.2.15.19.23.41.45.68.72.23.26.45.53.68.79.23.26.38.42.49.49.57.57,1.17,1.09,1.73,1.66s1.17,1.06,1.81,1.55c.15.11.3.19.45.3.15.11.3.23.45.34.11.11.26.19.38.3.11.11.26.23.38.34.11.08.3.15.53.26.19.11.34.19.38.3-.04.04-.11.04-.15,0h-.19c-.38,0-.75,0-1.13-.04-.38-.04-.75-.04-1.13-.04-.11,0-.26,0-.38.04-.11.04-.26.08-.38.08-.15,0-.3,0-.45-.04-.15-.04-.3-.04-.45-.04-.11,0-.19,0-.26.04s-.15.04-.26.04c-.26,0-.57-.04-.83-.08-.26-.04-.57-.04-.83-.04-.08,0-.15,0-.19.04-.11,0-.19-.04-.23-.08s-.08-.11-.08-.26v-1.02c0-.68-.08-1.24-.23-1.66-.15-.41-.64-.6-1.43-.6-.11,0-.3,0-.6.04-.34.04-.49.11-.49.3,0,.3,0,.6.04.91v.94c0,.19,0,.38-.04.53-.04.19-.08.38-.08.57,0,.04,0,.11.04.15.04.08.04.15.04.19h-3.77c-.11,0-.19,0-.26.04-.1.03-.17.04-.26.04.26-.19.48-.37.65-.51Zm-2.24,3.64v-.26c-.04-.08-.04-.15-.04-.26t.04-.08s.04-.08.15-.11c.11-.04.23-.04.34-.08h2.15c.11,0,.26,0,.38-.04.11-.04.23-.04.34-.04.15,0,.3,0,.45.04.15.04.3.04.49.04h3.47c.11,0,.23,0,.3-.04.08-.04.19-.04.3-.04.26,0,.57,0,.83.04.26.04.57.04.83.04s.57,0,.83-.04c.26-.04.57-.04.83-.04h.57c.3,0,.6,0,.94.04.3.04.57.08.83.11.26.08.38.19.38.34v.26c-.04.11-.04.23-.04.34,0,.19.04.38.08.57.04.19.04.38.04.57s0,.34-.04.45h-.04s-.04.04-.08.04c-.41,0-.87,0-1.32.04-.45.04-.91.04-1.32.04-.64,0-1.32,0-1.96-.04-.64-.04-1.32-.04-1.96-.04-.26,0-.57,0-.83.04-.26.04-.57.08-.83.08-.11,0-.23,0-.3-.04-.11-.04-.23-.04-.34-.04s-.19,0-.26.04-.15.04-.23.04c-.49,0-.94-.04-1.43-.08-.49-.04-.94-.04-1.43-.04-.26,0-.57,0-.83.04-.26.04-.57.08-.83.08s-.42-.04-.42-.15c-.04-.11-.04-.26-.04-.53v-.23s-.04-.11-.04-.19c0-.11,0-.19.04-.3.04-.08.04-.15.04-.26,0-.15,0-.26-.04-.3Zm7.77,7.05c-.19-.04-.38-.04-.57-.04s-.38,0-.53.04c-.19.04-.38.08-.57.08-.11,0-.23-.04-.3-.08-.11-.04-.19-.04-.3-.04h-2.23c-.08,0-.15,0-.23.04-.08.04-.15.08-.26.08h-1.73c-.11,0-.26,0-.38-.04-.11-.04-.26-.04-.38-.04h-.11s-.08-.04-.11-.15c-.04-.11-.08-.15-.08-.19v-.6c-.04-.19-.04-.41-.04-.6,0-.68.15-1.06.41-1.17s.68-.15,1.24-.15c.11,0,.19-.04.26-.08.08-.04.15-.04.26-.04h2.23c.49.04.91.04,1.32.04.38.04.6.04.64.08h.26c.08,0,.15,0,.26-.04h.23c.57,0,1.17,0,1.73.04.57.04,1.17.04,1.73.04.19,0,.38-.04.57-.08.15-.04.34-.04.53-.04s.42,0,.6.04c.19.04.41.08.6.08.04,0,.08,0,.11-.04h.08s.11-.04.23-.04c.57,0,.91.11,1.02.3.11.23.15.6.15,1.09,0,.41-.08.75-.26.94-.19.23-.42.38-.68.45-.3.11-.6.15-.94.15-.34.04-.68.04-.98.04h-.49c-.19.04-.34.04-.53.04-.15,0-.3-.04-.45-.08-.15-.04-.3-.04-.45-.04-.23,0-.45,0-.64.04-.23.04-.45.04-.68.04-.19,0-.38-.04-.57-.08Zm4.9,5.66c-.3.19-.57.34-.79.45-.11-.04-.3-.19-.57-.41-.26-.23-.57-.49-.83-.79-.3-.26-.57-.57-.79-.83-.26-.26-.41-.45-.53-.57-.11-.11-.23-.26-.3-.38-.08-.11-.15-.26-.26-.38-.15-.15-.23-.26-.26-.34.11-.04.26-.04.45-.04.11,0,.19,0,.26.04.04.04.11.04.23.04h3.36c.53,0,1.06,0,1.58-.04.49-.04,1.02-.04,1.55-.04.11,0,.26,0,.41.04.11.04.26.04.38.04h.19s-.19.15-.38.3c-.19.19-.34.26-.38.26-.11.11-.26.26-.38.41-.11.15-.26.26-.38.34-.26.15-.53.34-.79.57-.3.23-.6.45-.91.68-.3.23-.6.45-.87.64Z"/>
      <path class="cls-2" d="m32.6,50.91c-.15,0-.38.08-.64.19-.26.15-.57.3-.87.49s-.57.41-.83.6c-.26.19-.41.34-.49.45-.11.11-.23.26-.3.38-.08.11-.19.26-.3.38-.19.19-.42.38-.64.49-.23.11-.42.26-.6.45-.11.11-.23.23-.34.34-.11.11-.26.23-.38.34-.41.26-.83.53-1.17.75-.38.23-.79.42-1.24.6-.11.04-.3.11-.57.23s-.45.15-.57.15c-.26,0-.6,0-.98-.04-.38,0-.75-.04-1.09-.15-.34-.08-.64-.23-.91-.42s-.38-.49-.38-.83c0-.38.11-.75.34-1.13.23-.38.57-.57.98-.57.26,0,.53.04.79.11.23.08.49.11.75.11s.57-.04.94-.15.68-.23.87-.34.38-.3.53-.49c.11-.19.26-.34.45-.49.34-.3.72-.6,1.06-.94.34-.3.64-.6.98-.94.11-.11.26-.23.38-.26.11-.04.23-.11.26-.19l.34-.34c.08-.11.19-.23.3-.34.19-.19.41-.34.75-.49.3-.11.64-.23.98-.34.34-.11.68-.19,1.02-.23.34-.04.6-.08.83-.08,1.24,0,2.3.23,3.17.68.83.45,1.62,1.17,2.41,2.11.19.26.38.49.53.75.11.26.3.49.49.75.15.23.34.45.53.68.19.23.38.42.57.6.19.15.38.34.53.53.19.26.41.57.6.83.19.3.38.57.6.83.34.34.68.68,1.06.94.38.3.75.6,1.09.9.42.38.87.72,1.28,1.06.41.34.87.64,1.36.94.19.11.38.19.57.19.19.04.41.08.6.19.45.23.98.42,1.58.53.57.11,1.13.23,1.62.26.26.04.57.08.83.11.26.04.57.08.83.08.11,0,.23,0,.34-.04h.57c.08,0,.15.04.19.11.11.08.19.26.19.57-.04.3-.04.53,0,.64.04.04.04.11.08.15.04.08.04.15.04.19,0,.11-.04.23-.08.34-.04.11-.11.26-.15.38-.19.45-.45.68-.75.72-.3.04-.68.08-1.09.08-.34,0-.68-.08-1.02-.23-.34-.11-.64-.19-.87-.19-.04.04-.11.08-.23.04h-.23c-.08,0-.23-.04-.49-.11-.26-.04-.57-.11-.87-.19-.3-.08-.57-.15-.83-.23-.26-.08-.45-.11-.53-.15-.11-.04-.26-.11-.38-.23s-.26-.19-.42-.23c-.19-.04-.41-.11-.72-.23-.34-.08-.53-.19-.64-.34-.26-.15-.49-.3-.75-.42-.26-.11-.49-.26-.72-.45-.49-.34-.94-.72-1.36-1.09-.45-.38-.91-.79-1.32-1.21-.11-.11-.19-.23-.26-.34s-.15-.19-.26-.3c-.64-.64-1.24-1.4-1.85-2.26-.08-.11-.11-.23-.15-.34-.04-.11-.08-.23-.19-.34-.19-.26-.49-.64-.83-1.13-.34-.45-.72-.91-1.09-1.4-.42-.45-.79-.87-1.21-1.24-.42-.34-.75-.57-1.06-.68-.38-.11-.75-.15-1.13-.15h-.45Zm14.56,6.3c-.11.08-.23.11-.34.11-.11.04-.26.04-.42,0h-.38c-.11,0-.23,0-.34.04-.11.04-.23.04-.34.04-.08,0-.11-.08-.15-.23-.04-.11-.08-.26-.08-.45-.04-.15-.04-.3-.04-.45-.04-.15-.04-.26-.04-.3-.04-.04-.04-.15-.04-.26,0-.34.04-.72.08-1.09.04-.34.08-.72.08-1.06v-1.13c0-.08,0-.15-.04-.19v-.23s-.04-.11-.04-.19c0-.15.04-.3.08-.49.04-.19.15-.26.34-.26h.34c.15.04.26.04.3.08h.38c.19.04.3,0,.38-.04h.23c.08.04.11.08.11.19,0,.04,0,.11-.04.19-.04.08-.04.15-.04.19-.04.04-.04.08-.04.19,0,.26.04.53.11.79.04.26.08.53.08.79,0,.34-.04.68-.08.98-.04.34-.08.68-.08,1.02,0,.23.04.45.08.64.04.19.08.45.08.79,0,.15-.04.26-.15.34Zm2.68.19s-.08,0-.11-.04c-.04,0-.08-.04-.08-.11v-.23c0-.11,0-.26.04-.41.04-.15.04-.3.04-.42,0-.3-.04-.6-.08-.9-.04-.3-.08-.6-.08-.91,0-.19.04-.41.08-.6.04-.19.08-.38.08-.57v-1.51c0-.26.08-.41.23-.49.15-.04.34-.08.53-.08h1.06c.19,0,.3.04.26.11-.04.11-.04.23-.04.34,0,.26.04.49.08.72.04.23.04.45.04.72v.38c-.04.15-.04.3-.04.42s.04.23.08.3c.04.11.04.23.04.34,0,.15,0,.3-.04.41-.04.15-.04.3-.04.45,0,.19,0,.42.04.64v.98c0,.08-.04.15-.15.19-.11.04-.26.08-.38.11-.15.04-.3.08-.42.11-.15.04-.26.04-.3.04h-.83Z"/>
      <path class="cls-2" d="m57.41,47.9s-.15.04-.3.04c-.26,0-.53,0-.79-.04-.26-.04-.53-.04-.79-.04-.23,0-.45,0-.64.04-.23.04-.45.04-.68.04-.08,0-.11,0-.15-.04,0-.68-.11-1.36-.34-2-.26-.64-.57-1.28-.91-1.85-.19-.34-.41-.64-.68-.91l-.83-.83-.83-.83c-.3-.26-.6-.53-.94-.79h-.19c-.3-.3-.64-.57-1.02-.83-.38-.23-.75-.45-1.09-.68-.26-.15-.49-.3-.68-.49s-.42-.34-.68-.49c-.38-.23-.75-.49-1.13-.79-.41-.3-.79-.64-1.13-.98-.38-.34-.68-.72-.94-1.13-.26-.42-.45-.83-.57-1.28-.04-.11-.08-.26-.11-.45-.04-.19-.08-.34-.08-.45,0-.34.04-.68.11-1.02.08-.3.11-.6.15-.94v-.49c0-.08.04-.19.11-.34s.15-.3.26-.49c.11-.15.19-.3.3-.42.11-.11.15-.23.19-.26.04-.08.11-.15.19-.23.08-.04.15-.11.19-.19.57-.87,1.24-1.73,2-2.64.75-.87,1.62-1.55,2.56-2.04.11,0,.3-.11.53-.34l.45-.45c.11-.11.26-.26.41-.41.11-.11.26-.26.42-.38.11-.08.26-.19.53-.38.26-.15.49-.34.75-.53.26-.19.49-.34.68-.53s.3-.3.3-.41-.04-.23-.15-.34c-.11-.11-.19-.19-.3-.26-.15-.11-.3-.26-.41-.38-.15-.11-.3-.23-.42-.38s-.26-.38-.41-.64c-.19-.26-.34-.53-.49-.83-.19-.3-.3-.6-.41-.9-.11-.26-.19-.49-.19-.68,0-.11.08-.23.19-.3.04-.04.15-.08.34-.15.19-.04.38-.11.6-.19.19-.08.42-.15.6-.19.19-.04.3-.08.34-.08.11,0,.23.08.26.23.04.19.08.3.11.41.23.57.49,1.09.79,1.55s.75.79,1.36,1.02c.19.08.42.15.6.19.19.08.41.11.6.11s.38-.04.57-.15c.19-.08.38-.11.57-.11.15,0,.3.08.45.19.15.11.3.26.45.42.11.19.23.34.3.53.08.19.11.38.11.49,0,.23-.08.45-.26.64-.19.23-.41.41-.68.6s-.49.34-.75.49c-.26.19-.49.3-.68.41s-.3.23-.38.34c-.11.11-.26.19-.45.3-.41.19-.79.41-1.21.6-.41.23-.83.49-1.17.75-.11.08-.23.19-.34.3-.15.11-.3.26-.41.38-.15.15-.3.26-.42.38s-.23.19-.3.23c-.11.08-.23.15-.34.19-.11.04-.26.15-.38.26s-.19.19-.26.3c-.08.11-.15.23-.26.34-.19.19-.38.3-.6.38-.23.11-.41.23-.6.42-.26.26-.6.64-.98,1.09-.38.45-.72.94-1.06,1.47-.34.53-.64,1.06-.87,1.58-.23.53-.34.98-.34,1.4l.04.15c.19.41.45.83.79,1.21.34.38.68.72,1.06,1.02.19.15.38.3.57.49s.38.38.6.49c.19.11.42.23.68.34.23.11.45.23.64.34s.41.26.6.41c.19.15.38.26.6.34.11.04.19.08.26.11.08.04.15.08.26.11.34.19.68.45.94.79.26.34.57.64.9.83.34.19.64.41.98.6.3.19.57.45.83.75.11.15.23.3.34.49.08.19.19.34.3.53.23.34.41.64.6.91.15.3.34.64.53.98.11.19.23.45.38.75.11.34.26.68.38,1.02s.19.68.3,1.02c.08.34.11.6.11.79s-.04.34-.08.38Zm.75-18.03c-.11,0-.19,0-.23-.04-.26,0-.45-.04-.49-.15-.08-.11-.11-.3-.11-.57.04-.04.04-.08.04-.15.04-.11.08-.19.08-.26.04-.04.04-.11.08-.15,0-.04,0-.08.04-.11,0-.08,0-.15.04-.19-.04-.34-.11-.64-.15-.98-.04-.3-.08-.6-.08-.94,0-.23,0-.45.04-.68.04-.19.04-.42.04-.64v-.45c-.04-.11-.04-.26-.04-.38,0-.26.08-.42.26-.45.19-.04.38-.04.57-.04h.3c.49,0,.79.11.91.38.08.26.11.64.11,1.06v1.51l-.11.15c.04.19.08.41.08.6v1.85s0,.15-.04.26c-.04.15-.11.23-.15.26-.04.04-.08.08-.15.08-.08.04-.15.04-.19.04h-.83Zm5.05.08c-.11,0-.23,0-.34.04-.11.04-.23.04-.34.04-.23,0-.34-.08-.38-.19-.04-.11-.04-.26-.04-.45,0-.34,0-.64.04-.98v-.94c0-.19,0-.41.04-.6.04-.19.04-.42.04-.6,0-.23,0-.45-.04-.64-.04-.19-.08-.41-.08-.64,0-.08,0-.19.04-.3,0-.11,0-.26.04-.38.04-.11.08-.23.11-.34.04-.11.11-.15.23-.15h.19s.11.04.15.04c.04.04.11.04.19.04h.38s.11,0,.19-.04h.15c.15,0,.26.11.38.34.08.23.15.49.19.79.04.3.04.6.04.87v1.85c0,.15-.04.26-.08.38-.08.11-.11.26-.11.41,0,.19.04.34.08.49.04.15.08.3.08.49v.38c0,.08-.11.11-.3.11h-.83Z"/>
    </g>
    <g>
      <path class="cls-1" d="m106.93,57.11c0,.33-.06.62-.19.87-.12.25-.29.46-.5.63-.21.17-.46.29-.74.38s-.59.13-.91.13c-.22,0-.42-.02-.61-.05-.19-.04-.35-.08-.5-.13-.14-.05-.26-.1-.36-.16-.1-.06-.17-.1-.21-.15-.04-.04-.07-.1-.09-.18-.02-.08-.03-.19-.03-.34,0-.1,0-.19,0-.25,0-.07.02-.12.03-.17s.03-.07.06-.09.05-.03.09-.03c.04,0,.11.03.19.08s.19.11.32.18c.13.06.29.12.47.18s.39.08.63.08c.16,0,.3-.02.42-.06.12-.04.23-.09.31-.16.09-.07.15-.15.2-.25.04-.1.07-.21.07-.34,0-.14-.04-.27-.12-.37s-.18-.19-.31-.27c-.12-.08-.27-.15-.43-.22-.16-.07-.32-.14-.49-.22-.17-.08-.33-.17-.49-.27-.16-.1-.3-.22-.43-.36-.12-.14-.23-.3-.3-.49s-.12-.42-.12-.68c0-.3.06-.57.17-.8s.26-.42.45-.57.42-.26.67-.34.53-.11.82-.11c.15,0,.3.01.45.03.15.02.29.05.42.09.13.04.25.08.35.13.1.05.17.09.2.12.03.03.05.06.07.08.01.02.02.05.03.09,0,.04.01.08.02.14,0,.06,0,.13,0,.21,0,.09,0,.17,0,.24s-.01.12-.02.16c-.01.04-.03.07-.05.09-.02.02-.05.03-.08.03s-.09-.02-.17-.07-.17-.1-.29-.15c-.11-.05-.25-.1-.4-.15-.15-.04-.31-.07-.49-.07-.14,0-.26.02-.37.05-.1.03-.19.08-.26.14-.07.06-.12.13-.16.22s-.05.17-.05.27c0,.14.04.26.11.36.08.1.18.19.31.27.13.08.27.15.44.22.16.07.33.14.5.22.17.08.33.17.5.27.16.1.31.22.43.36s.23.3.31.49.12.41.12.66Z"/>
      <path class="cls-1" d="m120.2,56.65c0,.39-.06.73-.17,1.04-.11.31-.28.56-.5.78-.22.21-.5.37-.82.48-.33.11-.7.17-1.12.17-.4,0-.75-.05-1.07-.15-.32-.1-.58-.25-.8-.45-.22-.2-.38-.45-.5-.75-.12-.3-.17-.65-.17-1.06v-3.84s0-.06.03-.09.05-.05.1-.06c.05-.02.12-.03.2-.04.08,0,.19-.01.31-.01s.23,0,.31.01c.08,0,.15.02.2.04s.08.04.1.06c.02.03.03.06.03.09v3.73c0,.25.03.47.09.65.06.18.15.34.27.46.12.12.25.21.42.27s.34.09.54.09.38-.03.54-.09c.16-.06.29-.15.41-.27.11-.12.2-.27.26-.44.06-.17.09-.37.09-.59v-3.8s0-.06.03-.09.05-.05.1-.06.11-.03.2-.04.19-.01.31-.01.23,0,.3.01c.08,0,.14.02.19.04s.08.04.1.06.03.06.03.09v3.79Z"/>
      <path class="cls-1" d="m133.78,53.67c0,.09,0,.18-.01.24,0,.07-.02.12-.03.16s-.03.07-.05.09c-.02.02-.05.02-.08.02-.04,0-.11-.03-.21-.09-.09-.06-.22-.12-.38-.19s-.34-.13-.56-.19c-.22-.06-.47-.09-.75-.09-.31,0-.58.05-.83.16-.25.11-.46.26-.63.45s-.31.43-.41.7c-.09.27-.14.57-.14.9,0,.36.05.68.14.95.1.27.23.51.4.69.17.19.38.33.62.42.24.09.51.14.8.14.14,0,.29-.02.42-.05.14-.03.27-.08.39-.15v-1.46h-1.2c-.06,0-.1-.04-.14-.11-.03-.07-.05-.2-.05-.37,0-.09,0-.17.01-.23,0-.06.02-.11.04-.15.02-.04.04-.06.06-.08.02-.02.05-.03.08-.03h2.13c.05,0,.1,0,.14.03.04.02.08.04.11.08.03.04.05.08.07.13.02.05.02.11.02.17v2.51c0,.1-.02.18-.05.26s-.1.13-.21.17c-.11.04-.24.09-.39.13s-.32.08-.49.12c-.17.03-.34.06-.51.07s-.34.02-.52.02c-.5,0-.96-.07-1.35-.22-.4-.15-.74-.35-1.01-.63-.28-.27-.49-.61-.63-1.01s-.22-.84-.22-1.35.08-.98.23-1.39.38-.76.66-1.05c.29-.29.63-.51,1.04-.66s.86-.23,1.35-.23c.27,0,.52.02.75.06s.42.08.59.14c.17.05.31.11.42.17.11.06.19.12.23.16.04.05.08.11.09.19s.03.21.03.37Z"/>
      <path class="cls-1" d="m147.37,56.65c0,.39-.06.73-.17,1.04-.11.31-.28.56-.5.78-.22.21-.49.37-.82.48-.33.11-.7.17-1.12.17-.4,0-.75-.05-1.07-.15-.32-.1-.58-.25-.8-.45-.22-.2-.38-.45-.5-.75-.12-.3-.17-.65-.17-1.06v-3.84s0-.06.03-.09.05-.05.11-.06c.05-.02.12-.03.2-.04.08,0,.19-.01.31-.01s.23,0,.31.01c.08,0,.15.02.2.04s.08.04.11.06c.02.03.03.06.03.09v3.73c0,.25.03.47.09.65.06.18.15.34.27.46.12.12.25.21.42.27s.34.09.54.09.38-.03.54-.09c.16-.06.29-.15.41-.27.11-.12.2-.27.26-.44.06-.17.09-.37.09-.59v-3.8s0-.06.03-.09.05-.05.1-.06.12-.03.2-.04.19-.01.31-.01.23,0,.31.01c.08,0,.14.02.19.04s.08.04.1.06.03.06.03.09v3.79Z"/>
      <path class="cls-1" d="m169.41,53.21c0,.09,0,.17-.01.24s-.02.12-.04.16c-.02.04-.04.07-.06.09-.03.02-.05.03-.08.03h-1.58v5.09s-.01.06-.03.09c-.02.03-.06.05-.11.06s-.11.03-.2.04-.19.01-.31.01-.23,0-.31-.01-.15-.02-.2-.04-.08-.04-.1-.06c-.02-.03-.03-.06-.03-.09v-5.09h-1.58s-.06,0-.08-.03c-.02-.02-.04-.05-.06-.09-.02-.04-.03-.09-.04-.16,0-.07-.01-.15-.01-.24s0-.18.01-.25c0-.07.02-.12.04-.16.02-.04.04-.07.06-.09.02-.02.05-.03.08-.03h4.45s.05,0,.08.03c.02.02.04.05.06.09.02.04.03.1.04.16s.01.15.01.25Z"/>
      <path class="cls-1" d="m181.95,58.53c.04.12.06.21.07.28s0,.12-.04.15-.1.06-.19.06-.22.01-.38.01-.29,0-.39,0c-.09,0-.16-.01-.21-.03s-.08-.04-.1-.06-.04-.06-.05-.1l-.42-1.27h-2.37l-.4,1.24s-.03.08-.05.11c-.02.03-.05.06-.1.07-.05.02-.11.03-.2.04-.09,0-.2,0-.34,0-.15,0-.27,0-.35-.01s-.14-.03-.18-.07-.04-.09-.03-.16.03-.16.07-.27l1.95-5.61c.02-.06.04-.1.07-.13s.07-.06.12-.08c.06-.02.14-.03.24-.03s.23,0,.4,0c.19,0,.34,0,.46,0s.2.02.27.03c.06.02.11.04.14.08.03.04.05.08.07.15l1.95,5.6Zm-2.9-4.63h0l-.89,2.69h1.79l-.89-2.69Z"/>
      <path class="cls-1" d="m194.57,57.11c0,.22-.03.43-.09.61s-.15.34-.26.48c-.11.14-.24.26-.39.36-.15.1-.32.18-.5.25-.18.06-.38.11-.58.14-.21.03-.44.05-.69.05h-1.68c-.11,0-.2-.03-.27-.1-.07-.06-.11-.17-.11-.31v-5.51c0-.14.04-.25.11-.31.07-.06.16-.1.27-.1h1.59c.39,0,.71.03.98.1.27.06.49.16.68.3.18.13.33.3.42.5s.15.44.15.71c0,.15-.02.3-.06.43s-.1.26-.17.37-.17.21-.28.29c-.11.08-.23.15-.37.21.18.03.34.09.5.17.15.08.28.19.4.31.11.13.2.28.27.45s.1.37.1.58Zm-1.66-2.66c0-.13-.02-.24-.06-.34s-.1-.18-.18-.25-.18-.12-.29-.15c-.12-.04-.28-.05-.48-.05h-.65v1.64h.72c.19,0,.33-.02.44-.07s.2-.1.28-.18c.07-.08.13-.17.16-.27s.05-.21.05-.32Zm.33,2.71c0-.15-.02-.28-.07-.39s-.12-.21-.21-.29-.21-.14-.36-.18-.34-.06-.57-.06h-.76v1.8h.93c.18,0,.33-.02.45-.06.12-.04.23-.09.32-.17.09-.07.16-.16.21-.27.05-.11.08-.23.08-.37Z"/>
      <path class="cls-1" d="m206.51,58.5c0,.09,0,.17-.01.24,0,.06-.02.11-.04.15s-.04.07-.06.09c-.03.02-.05.03-.08.03h-3.17c-.11,0-.2-.03-.27-.1-.07-.06-.11-.17-.11-.31v-5.51c0-.14.04-.25.11-.31.07-.06.16-.1.27-.1h3.15s.06,0,.08.02.04.04.06.09.03.09.04.16c0,.06.01.14.01.24,0,.09,0,.17-.01.23,0,.06-.02.11-.04.15s-.04.07-.06.09-.05.03-.08.03h-2.26v1.54h1.91s.06,0,.08.03c.03.02.04.05.06.08s.03.09.04.15c0,.06.01.14.01.23s0,.17-.01.23c0,.06-.02.11-.04.15s-.04.06-.06.08c-.02.02-.05.02-.08.02h-1.91v1.78h2.28s.06,0,.08.03c.02.02.04.05.06.09s.03.09.04.15c0,.06.01.14.01.24Z"/>
    </g>
    <path class="cls-2" d="m34.97,69.94C15.69,69.94,0,54.25,0,34.97S15.69,0,34.97,0s34.97,15.69,34.97,34.97-15.69,34.97-34.97,34.97Zm0-66.94C17.34,3,3,17.34,3,34.97s14.34,31.97,31.97,31.97,31.97-14.34,31.97-31.97S52.59,3,34.97,3Z"/>
  </g>
</svg>