<svg width="219" height="270" viewBox="0 0 219 270" fill="none" xmlns="http://www.w3.org/2000/svg">
<path d="M108.089 212.788C107.085 211.398 105.078 206.843 103.264 206.689C99.0171 206.341 98.631 200.28 102.105 199.47C102.105 199.354 101.99 199.277 101.99 199.161C101.99 198.852 102.144 198.736 102.414 198.582C102.569 198.427 102.839 198.273 102.993 198.157C103.997 197.424 105.31 196.574 106.931 195.841C108.398 195.107 109.556 194.374 110.29 193.525C111.293 192.637 112.336 191.787 113.648 190.899L117.123 188.699C118.744 187.811 120.327 186.653 122.064 185.07C123.801 183.449 125.423 182.175 126.735 180.978C127.044 180.824 127.314 180.553 127.739 180.245C128.163 180.09 128.318 179.665 128.318 179.241C128.318 178.816 128.009 178.237 127.314 177.504C126.581 176.77 125.693 175.921 124.689 175.187C123.685 174.454 122.797 173.72 121.91 173.141C120.906 172.717 120.288 172.408 119.863 172.408C119.439 172.562 118.976 172.987 118.397 173.412L116.659 175.149C116.08 175.728 115.501 176.152 115.077 176.616C114.652 177.04 114.189 177.349 114.073 177.349C113.764 177.04 113.648 176.461 113.648 175.766V174.029C113.648 173.026 113.648 171.983 113.803 170.979C113.957 170.092 113.957 169.088 113.957 168.084C113.957 167.08 113.957 166.193 113.803 165.189C113.648 164.301 113.648 163.452 113.648 162.409V159.36C113.494 158.047 113.648 157.159 113.803 156.734C113.957 156.58 113.957 156.31 114.111 156.155V155.731C114.111 154.418 114.111 152.951 113.957 151.523C113.803 150.056 113.648 148.627 113.648 147.315C113.648 146.89 113.803 146.427 113.957 146.002C114.111 145.694 114.111 145.423 114.111 144.999C114.111 143.686 114.111 142.219 113.957 140.907C113.803 139.594 113.648 138.127 113.648 136.814C113.648 136.39 113.803 135.811 113.957 135.193C114.111 135.27 114.304 135.386 114.575 135.502C112.336 131.95 113.031 127.897 113.648 122.569C113.648 122.569 113.687 122.569 113.725 122.569C113.725 122.415 113.725 122.261 113.725 122.106C112.374 121.064 110.984 120.099 109.672 119.172C109.247 119.018 108.784 118.748 108.205 118.284C107.626 117.975 107.201 117.705 107.047 117.396C106.622 117.242 106.159 116.817 105.734 116.238C105.155 115.814 104.576 115.35 104.113 115.08C101.063 112.88 98.0133 110.409 95.0794 107.668C92.1841 104.889 89.4045 101.993 86.9338 99.2137C86.3548 98.6346 85.7757 98.0555 85.3511 97.4765C84.9264 96.8974 84.3473 96.3183 83.7297 95.7393C83.305 95.3146 82.8418 94.7355 82.4171 94.0021C81.9925 93.423 81.5292 92.8439 81.1046 92.4193C80.6799 91.9946 79.9464 91.5314 78.9041 91.4156C77.8618 91.2997 77.0125 91.2611 76.279 91.2611H73.6539C73.6539 91.2611 73.2679 91.2611 73.1134 91.2997C72.2255 91.0681 71.3762 90.9137 70.4497 90.7979C70.4497 90.4504 70.4497 90.0644 70.3725 89.5625C70.0637 88.25 69.7934 86.9374 69.4846 85.3546C69.06 83.7719 68.7511 82.3049 68.3265 80.8379C67.9018 79.5254 67.4386 78.5216 67.3227 78.0584C67.1683 77.7495 66.8981 77.3249 66.4348 76.7458C66.0102 76.3212 65.8558 75.8579 65.8558 75.5877C65.8558 74.2751 65.8558 72.8082 66.0102 71.4956C66.1646 70.1831 66.1646 68.7161 66.1646 67.4035C66.1646 66.3998 66.319 65.5119 66.4734 64.624C66.6279 63.7361 66.7823 62.8868 66.7823 61.8445C66.7823 61.4198 66.6279 60.6864 66.2032 59.644C66.3576 59.2194 66.3576 58.4859 66.512 57.598C66.6665 56.7101 66.9367 56.131 67.3999 55.9766C67.5544 55.9766 68.2879 55.9766 69.7162 55.8222C71.0288 55.8222 72.6116 55.8222 74.3874 55.6678H81.9539C82.6873 55.6678 83.4208 55.6678 84.1543 55.8222C84.7334 55.9766 85.4669 56.131 86.2004 56.131C87.6673 56.131 89.0957 56.131 90.4083 55.9766C91.7208 55.8222 93.1878 55.8222 94.6161 55.8222H98.3994C99.5575 55.9766 100.716 55.9766 102.028 55.9766C102.762 55.9766 103.495 55.9766 104.229 55.8222C104.962 55.6678 105.696 55.6678 106.429 55.6678C107.163 55.6678 108.051 55.6678 108.745 55.8222C109.44 55.9766 110.212 55.9766 110.946 55.9766C111.95 55.9766 113.146 55.9766 114.304 55.8222C115.308 55.6678 115.887 54.9343 115.887 53.5059V52.1934C115.733 51.7687 115.733 51.3055 115.733 50.8808C115.733 50.4562 115.733 49.8771 115.887 49.298V47.5608C115.733 47.1362 115.578 46.6729 115.463 46.2483C115.154 45.9394 114.729 45.8236 114.15 45.8236H112.529C111.95 45.978 111.37 45.978 110.791 45.978C109.788 45.978 108.9 45.8236 108.166 45.6692C107.278 45.5148 106.429 45.5148 105.541 45.5148C105.387 45.3604 104.962 45.3604 104.538 45.3604C104.113 45.3604 103.534 45.5148 103.071 45.6692C102.646 45.8236 102.067 45.978 101.604 45.978C101.14 45.978 100.716 45.978 100.291 45.8236C99.8663 45.6692 99.4031 45.6692 98.9784 45.6692H95.0408C94.3073 45.6692 93.7282 45.6692 93.1492 45.8236C92.5701 45.978 91.991 45.978 91.412 45.978C90.5241 45.978 89.6748 45.8236 88.9413 45.5534C88.2078 45.399 87.3585 45.2445 86.4706 45.2445C85.7371 45.2445 84.8878 45.399 83.9999 45.5534C83.112 45.7078 82.2627 45.8622 81.5292 45.8622H72.8046C70.0251 45.8622 68.2879 45.4376 67.2841 44.7041C66.2804 43.9706 65.8172 42.2334 65.8172 39.4539V37.4078C65.8172 36.6743 65.9716 35.9409 66.2418 35.2074C66.3962 34.6283 66.5507 33.8948 66.5507 33.1613C66.5507 31.8488 66.5507 30.5362 66.3962 29.2237C66.2418 28.0655 66.2418 26.753 66.2418 25.4404C66.2418 24.7069 66.2418 23.8576 66.3962 23.1242C66.5507 22.3907 66.5507 21.6572 66.5507 20.9237C66.5507 20.1902 66.3962 19.6111 66.126 19.3023C65.8172 19.1479 65.2381 18.9935 64.5046 18.9935H62.3042C61.5707 19.1479 60.8372 19.1479 60.1037 19.1479C58.2121 19.1479 57.0539 19.3023 56.4749 19.4567C55.8958 19.6111 55.587 20.7693 55.587 22.6609C55.587 23.24 55.587 23.819 55.7414 24.3981V26.1353C55.7414 27.139 55.7414 28.0269 55.587 28.9148C55.4326 29.8027 55.2781 30.652 55.2781 31.6944C55.2781 33.0069 55.4326 34.165 55.7028 35.3232C56.0116 36.4813 56.1274 37.6395 56.1274 38.952C56.1274 39.3767 55.973 39.8399 55.8186 40.2646C55.5098 40.8436 55.3939 41.7315 55.3939 42.7352C55.3939 43.6232 55.2395 44.318 54.8149 44.7813C54.0814 45.2059 53.3479 45.3604 52.4986 45.3604C51.4949 45.5148 50.607 45.5148 49.6033 45.5148C48.5995 45.6692 47.7116 45.8236 46.7079 45.9394C46.1289 46.0938 45.7042 46.2483 45.241 46.2483C43.9284 46.2483 42.7703 46.0938 42.0368 45.8236C41.1489 45.6692 40.2996 45.5148 39.4117 45.5148H31.6908C31.2661 45.5148 30.9573 45.5148 30.6871 45.6692C30.2624 45.8236 29.9536 45.8236 29.5289 45.8236C28.9499 45.8236 28.3708 45.8236 27.9075 45.6692H26.1703C25.5913 45.6692 25.0122 45.6692 24.5875 45.8236C24.1629 45.978 23.5838 45.978 22.9662 45.978C22.3485 45.978 21.808 45.8236 21.2289 45.6692C20.6499 45.5148 20.0708 45.3604 19.3373 45.3604C18.1792 45.3604 17.0211 45.3604 15.8243 45.5148C14.6662 45.6692 13.508 45.8236 12.3499 45.8236H-6.45049C-6.75932 45.8236 -7.18397 45.8236 -7.76304 45.6692H-9.50024C-10.2337 45.6692 -10.8128 45.6692 -11.2374 45.8236C-11.6621 45.978 -11.9709 46.2483 -12.1254 46.5571C-12.2798 46.8659 -12.2798 47.2906 -12.2798 47.8696C-12.2798 48.6031 -12.1253 49.4524 -11.8551 50.1859C-11.7007 51.0738 -11.5463 51.9231 -11.5463 52.6566C-11.5463 52.9655 -11.5463 53.2357 -11.7007 53.3901C-11.7007 53.5445 -11.7007 53.8147 -11.8551 53.9692C-12.0095 54.278 -12.0095 54.5482 -12.0095 54.7027C-12.0095 55.4361 -11.4305 55.7064 -10.2723 55.8608C-9.26862 56.0152 -8.38071 56.0152 -7.95606 56.0152C-7.22258 56.0152 -6.33467 56.0152 -5.48537 55.8608H-3.01468C-2.01097 55.8608 -1.12306 55.8608 -0.119345 56.0152C0.768559 56.1696 1.61786 56.1696 2.66018 56.1696C3.08483 56.1696 3.39366 56.1696 3.6639 56.0152C3.81831 55.8608 4.08855 55.8608 4.5518 55.8608H5.70993C6.289 56.0152 6.86807 56.0152 7.60156 56.0152H9.33876C9.76341 56.0152 10.2267 56.0152 10.3425 55.8608H11.2304C11.9639 55.8608 12.5429 55.8608 13.2764 56.0152C13.8555 56.1696 14.4346 56.1696 15.168 56.1696C15.7471 56.1696 16.3262 56.1696 16.9052 56.0152C17.3299 56.0152 17.909 56.0152 18.488 55.8608C20.5341 55.552 22.6959 55.4361 24.8964 55.552C27.0968 55.7064 29.1043 55.7064 31.1503 55.7064H40.7628C43.8126 55.8608 47.0168 55.8608 50.2209 55.8608C50.6456 55.8608 51.1088 55.8608 51.5335 55.7064C51.9581 55.552 52.4214 55.552 52.846 55.552C54.0042 55.552 54.7377 55.7064 55.0465 55.9766C55.3553 56.2854 55.4712 56.9803 55.4712 58.0226C55.4712 59.3352 55.4712 60.6477 55.3167 61.9603C55.1623 63.2729 55.0079 64.7398 55.0079 66.0524V67.0561C55.0079 67.0561 55.1623 67.3649 55.1623 67.4807C55.1623 67.5966 55.1623 67.7896 55.3167 67.9054V68.3301C55.3167 68.7547 55.1623 69.0635 54.7377 69.218C54.313 69.3724 54.0042 69.3724 53.5795 69.3724C52.8461 69.3724 52.267 69.3724 51.6879 69.218C51.1088 69.0635 50.5298 69.0635 49.7963 69.0635H48.0591C47.48 69.0635 46.901 69.2179 46.4377 69.3724C45.7042 69.6812 44.9707 69.9514 44.2372 70.1059C43.5038 70.4147 42.9247 70.8393 42.1912 71.264C40.2996 72.5765 38.408 74.0435 36.5163 75.7807C34.6247 77.6723 33.1577 79.564 32.3084 81.61C31.8838 82.7681 31.4205 84.0807 31.1503 85.7021C30.8415 87.3235 30.7257 88.5974 30.7257 89.91V92.6895C30.7257 93.6932 30.8801 94.5811 31.0345 95.3146C31.4591 98.0941 32.6559 100.719 34.2387 103.19C35.8215 105.661 37.8675 107.552 40.4926 108.595C41.0717 108.749 41.6507 109.019 42.2298 109.328C42.8089 109.753 43.3879 109.907 44.1214 109.907C44.8549 109.907 45.434 109.598 46.1675 109.174C46.7465 108.749 47.1712 108.016 47.6344 107.282C48.0591 106.549 48.3679 105.815 48.6382 104.966C48.7926 104.232 48.947 103.499 48.947 102.92C48.947 101.916 48.6382 101.182 47.9433 100.603C47.2098 100.179 46.3605 99.5997 45.4726 98.8662C44.5847 98.1327 43.8898 97.3992 43.1563 96.3955C42.4228 95.5076 41.9982 94.1951 41.9982 92.6123C41.9982 91.2997 42.1526 89.9872 42.4228 88.4044C42.7317 86.783 43.1563 85.3546 43.8898 84.0421C44.6233 82.7295 45.4726 81.7258 46.5149 80.6835C47.5186 79.7956 48.9856 79.3709 50.607 79.3709C51.9195 79.3709 53.0777 79.6798 54.2358 80.2589C55.2395 80.9923 56.2819 81.7258 57.1311 82.7295C57.8646 83.7333 58.5981 84.7756 59.0228 85.9337C59.4474 87.2463 59.7563 88.4044 59.7563 89.5625C59.7563 89.9872 59.7563 90.4504 59.6018 90.8751C59.4474 91.2997 59.4474 91.763 59.4474 92.1876C59.293 92.3421 59.293 92.7667 59.293 93.1914C59.293 93.616 59.4474 94.0793 59.6018 94.5039C59.7563 94.9286 59.7563 95.5076 59.7563 96.0867C59.7563 97.0904 59.6018 98.1327 59.4474 99.2909C59.1386 100.449 58.8684 101.491 58.4437 102.495C58.1349 103.383 57.7102 104.541 57.1311 105.854C56.3977 107.321 55.8186 108.749 55.0851 110.216C54.3516 111.683 53.7726 112.995 53.0391 114.308C52.3056 115.621 51.5721 116.624 50.993 117.203L44.8935 123.303C44.4689 123.728 43.8898 124.191 43.1563 124.307C42.4228 124.615 41.8438 125.04 41.2647 125.465C39.9521 126.468 38.4852 127.356 37.1726 128.09C35.8601 128.823 34.3931 129.557 32.8103 130.29C32.3857 130.445 31.9224 130.715 31.6522 130.869C31.2275 131.024 30.7643 131.294 30.3396 131.448C29.6061 131.757 28.8726 131.873 28.1392 131.873C27.4057 131.873 26.8266 132.028 26.0931 132.452C25.3596 132.877 24.5103 133.34 23.468 133.61C22.4257 133.881 21.422 134.035 20.4183 134.035C19.2601 134.035 18.102 134.344 16.7894 134.768C16.635 134.923 16.0559 135.077 15.3225 135.193C14.589 135.502 14.1643 135.772 14.1643 136.081C14.1643 136.235 14.3187 136.506 14.7434 136.969C15.168 137.394 15.4769 137.857 15.6313 138.281C15.9401 139.015 16.3648 140.173 16.7894 141.64C17.2141 143.107 17.7932 144.111 18.2564 144.69C18.4108 144.999 18.9899 145.114 19.7234 145.114C20.7271 145.114 21.7694 144.96 22.5029 144.69C23.2364 144.265 23.9699 143.956 24.9736 143.686C25.7071 143.532 26.5564 143.377 27.2899 143.261C28.0233 143.107 28.9112 142.953 29.6061 142.837C30.0308 142.682 30.494 142.412 30.9187 142.103C31.3433 141.794 31.8066 141.524 32.2312 141.37C32.8103 141.215 33.3894 141.061 33.9684 141.061C34.5475 140.907 35.1266 140.752 35.7056 140.636C35.8215 140.636 35.9373 140.559 36.0531 140.521C36.0917 140.868 36.1303 141.215 36.2461 141.563C36.2461 142.296 36.2461 142.875 36.4005 143.454V144.767C36.4005 146.504 36.4005 148.28 36.2461 150.017C36.0917 151.754 35.9373 153.492 35.9373 155.267C35.9373 155.692 36.0917 156.271 36.2461 156.734C36.4005 157.313 36.4005 157.893 36.4005 158.472C36.4005 160.788 36.4005 163.143 36.2461 165.459C36.0917 167.93 36.0917 170.246 36.0917 172.601C36.0917 172.91 36.0917 173.18 36.2461 173.489C36.4005 173.798 36.4005 174.068 36.4005 174.377V202.905C36.4005 203.33 36.4005 203.793 36.2461 204.064C36.0917 204.488 36.0917 204.951 36.0917 205.376V208.156C35.9373 209.044 35.7829 209.893 35.667 210.781C34.9336 210.781 34.3545 210.935 33.7754 211.205C33.0419 211.514 32.4629 211.63 31.7294 211.63H31.3047C30.8801 211.476 30.301 211.476 29.2587 211.784C29.1429 211.784 29.0657 211.823 28.9885 211.862C29.1815 212.286 29.3359 212.75 29.3745 213.213C29.8378 213.483 30.301 213.83 30.6485 214.371C31.9996 216.456 33.8912 217.691 36.0917 218.347C38.9484 218.347 41.7666 218.193 44.6233 218C45.0093 217.73 45.3568 217.498 45.7428 217.228C45.7428 216.957 45.7428 216.726 45.82 216.456C46.3219 214.024 46.7851 211.591 47.287 209.159C47.287 208.966 47.4414 208.812 47.5186 208.657C47.4414 208.657 47.3256 208.696 47.2484 208.696C47.4028 207.229 47.4028 205.801 47.2484 204.488C47.094 203.176 46.9396 201.709 46.9396 200.396C46.9396 200.087 46.9396 199.817 47.094 199.508C47.2484 199.199 47.2484 198.929 47.2484 198.505C47.2484 198.08 47.2484 197.617 47.094 197.346C46.9396 197.076 46.9396 196.613 46.9396 196.188C46.9396 195.879 46.9396 195.609 47.094 195.3C47.2484 194.991 47.2484 194.721 47.2484 194.412C47.2484 193.409 47.2484 192.212 47.094 191.208C46.9396 190.205 46.9396 189.008 46.9396 188.004C46.9396 187.579 46.9396 187.116 47.094 186.692C47.2484 186.267 47.2484 185.804 47.2484 185.379C47.2484 184.645 47.2484 184.066 47.094 183.333C46.9396 182.754 46.9396 182.175 46.9396 181.441C46.9396 180.708 47.094 180.129 47.3642 179.859C47.5186 179.55 48.0977 179.434 48.8312 179.434C49.8349 179.434 51.0316 179.434 52.0354 179.588C53.0391 179.743 54.0814 179.743 55.0851 179.743C57.1312 179.743 59.1772 179.743 61.1846 179.588C63.0762 179.434 65.1223 179.434 67.1683 179.434C67.3228 179.434 67.593 179.434 67.7474 179.588C67.9018 179.743 67.9018 179.897 68.0562 180.013C69.06 181.325 70.2567 182.638 71.2604 184.221C72.2641 185.842 73.3064 187.425 74.0399 188.892C74.619 189.896 75.1981 190.938 75.9316 191.672C77.9776 193.872 80.1395 196.034 82.3399 198.08C83.3436 198.968 84.8106 200.126 86.5478 201.709C88.1306 203.291 89.5975 204.488 90.6399 205.222C91.9524 205.955 93.1106 206.804 94.2687 207.538C95.4268 208.426 96.585 209.275 97.8975 210.009C98.631 210.433 99.4803 210.897 100.523 211.321C101.565 211.746 102.414 212.209 103.302 212.634C103.881 212.943 104.46 213.213 105.039 213.637C105.618 213.946 106.198 214.217 106.622 214.525C108.205 215.259 109.788 215.838 111.255 216.417C110.058 215.375 109.016 214.178 108.051 212.865L108.089 212.788ZM55.78 128.939C56.5135 128.206 57.247 127.356 57.826 126.623C58.4051 125.889 58.9842 125.156 59.7177 124.307C60.2967 123.419 61.1846 122.261 62.1883 120.948C62.613 120.523 63.0762 119.944 63.5009 119.481C63.9256 119.056 64.2344 118.593 64.5046 118.168C65.0837 117.165 65.8172 115.698 66.5507 113.961C67.2841 112.223 67.8632 110.332 68.4423 108.286C69.0213 106.394 69.6004 104.502 70.0637 102.611C70.1023 102.418 70.1409 102.263 70.1795 102.07C72.1097 102.032 74.0013 102.263 75.8157 102.958C76.0474 103.151 76.279 103.306 76.5878 103.537C77.3213 104.425 78.1706 105.275 79.2129 106.317C80.1008 107.321 80.9501 108.363 81.838 109.367C82.726 110.37 83.305 110.988 83.7297 111.258C85.9301 113.459 88.2464 115.466 90.4083 117.667C92.5701 119.867 94.925 121.759 97.3957 123.65C97.9747 124.075 98.5538 124.384 99.1329 124.808C99.7119 125.233 100.291 125.696 100.87 126.121C101.295 126.546 101.874 126.855 102.337 127.279C102.762 127.704 103.341 128.167 103.804 128.592C104.229 128.901 104.962 129.171 105.85 129.595C106.584 130.02 107.163 130.329 107.317 130.754C107.163 130.908 106.892 130.908 106.738 130.754H106.004C104.537 130.754 103.109 130.754 101.642 130.599C100.175 130.445 98.7468 130.445 97.2799 130.445C96.8552 130.445 96.2761 130.445 95.8129 130.599C95.3882 130.754 94.8092 130.908 94.3459 130.908C93.7668 130.908 93.1878 130.908 92.6087 130.754C92.0296 130.599 91.4506 130.599 90.8715 130.599C90.4469 130.599 90.138 130.599 89.8678 130.754C89.5976 130.908 89.2887 130.908 88.8641 130.908C87.8604 130.908 86.6636 130.754 85.6599 130.599C84.6562 130.445 83.4594 130.445 82.4557 130.445C82.1469 130.445 81.8767 130.445 81.7222 130.599C81.2976 130.599 80.9888 130.445 80.8343 130.29C80.6799 130.136 80.5255 129.866 80.5255 129.287V125.349C80.5255 122.724 80.2167 120.562 79.6376 118.941C79.0585 117.358 77.1669 116.624 74.1171 116.624C73.6925 116.624 72.959 116.624 71.8009 116.779C70.4883 116.933 69.9092 117.203 69.9092 117.937C69.9092 119.095 69.9093 120.253 70.0637 121.45V125.079C70.0637 125.812 70.0637 126.546 69.9092 127.125C69.7548 127.858 69.6004 128.592 69.6004 129.325C69.6004 129.48 69.6004 129.75 69.7548 129.904C69.9092 130.213 69.9092 130.483 69.9092 130.638H55.3553C54.9307 130.638 54.6219 130.638 54.3516 130.792C53.9656 130.908 53.6954 130.947 53.3479 130.947C54.3516 130.213 55.2009 129.518 55.8572 128.978L55.78 128.939ZM47.1326 142.991V141.987C46.9782 141.679 46.9782 141.408 46.9782 140.984C46.9782 140.984 47.0296 140.881 47.1326 140.675C47.1326 140.675 47.287 140.366 47.7117 140.25C48.1363 140.096 48.5996 140.096 49.0242 139.941H57.3242C57.7488 139.941 58.3279 139.941 58.7911 139.787C59.2158 139.633 59.679 139.633 60.1037 139.633C60.6828 139.633 61.2618 139.633 61.8409 139.787C62.42 139.941 62.999 139.941 63.7325 139.941H77.1283C77.5529 139.941 78.0162 139.941 78.2864 139.787C78.5953 139.633 79.0199 139.633 79.4446 139.633C80.4483 139.633 81.645 139.633 82.6487 139.787C83.6525 139.941 84.8492 139.941 85.8529 139.941C86.8566 139.941 88.0534 139.941 89.0571 139.787C90.0608 139.633 91.2576 139.633 92.2613 139.633H94.4617C95.6199 139.633 96.778 139.633 98.0905 139.787C99.2487 139.941 100.291 140.096 101.295 140.212C102.298 140.521 102.762 140.945 102.762 141.524V142.528C102.607 142.953 102.607 143.416 102.607 143.84C102.607 144.574 102.762 145.307 102.916 146.041C103.071 146.774 103.071 147.508 103.071 148.241C103.071 148.975 103.071 149.554 102.916 149.979H102.762C102.762 149.979 102.607 150.133 102.453 150.133C100.87 150.133 99.0943 150.133 97.3571 150.287C95.6199 150.442 93.8441 150.442 92.2613 150.442C89.7906 150.442 87.1655 150.442 84.6948 150.287C82.2241 150.133 79.599 150.133 77.1283 150.133C76.1246 150.133 74.9278 150.133 73.9241 150.287C72.9204 150.442 71.7237 150.596 70.7199 150.596C70.2953 150.596 69.832 150.596 69.5618 150.442C69.1372 150.287 68.6739 150.287 68.2493 150.287C67.8246 150.287 67.5158 150.287 67.2455 150.442C66.9753 150.596 66.6665 150.596 66.3576 150.596C64.466 150.596 62.7288 150.442 60.8372 150.287C58.9456 150.133 57.2084 150.133 55.3167 150.133C54.313 150.133 53.1163 150.133 52.1126 150.287C51.1088 150.442 49.9121 150.596 48.9084 150.596C47.9047 150.596 47.287 150.442 47.287 150.017C47.1326 149.593 47.1326 149.014 47.1326 147.971V147.083C47.1326 147.083 46.9782 146.659 46.9782 146.35C46.9782 145.925 46.9782 145.616 47.1326 145.192C47.287 144.883 47.287 144.613 47.287 144.188C47.287 143.609 47.287 143.184 47.1326 143.03V142.991ZM77.1283 170.207C76.3948 170.053 75.6613 170.053 74.9278 170.053C74.1944 170.053 73.4609 170.053 72.8818 170.207C72.1483 170.362 71.4148 170.516 70.6813 170.516C70.2567 170.516 69.7934 170.362 69.5232 170.207C69.0985 170.053 68.7897 170.053 68.3651 170.053H59.7563C59.4474 170.053 59.1772 170.053 58.8684 170.207C58.5595 170.362 58.2893 170.516 57.8646 170.516H51.1861C50.7614 170.516 50.1823 170.516 49.7191 170.362C49.2944 170.207 48.7154 170.207 48.2521 170.207H47.8275C47.8275 170.207 47.5186 170.053 47.4028 169.628C47.2484 169.204 47.094 169.049 47.094 168.895V166.579C46.9396 165.845 46.9396 164.996 46.9396 164.262C46.9396 161.637 47.5186 160.17 48.5223 159.746C49.5261 159.321 51.1475 159.166 53.3093 159.166C53.734 159.166 54.0428 159.012 54.313 158.858C54.6219 158.703 54.8921 158.703 55.3167 158.703H63.9256C65.8172 158.858 67.4386 158.858 69.0213 158.858C70.4883 159.012 71.3376 159.012 71.492 159.166H72.4957C72.8046 159.166 73.0748 159.166 73.4995 159.012H74.3874C76.5878 159.012 78.9041 159.012 81.066 159.166C83.2664 159.321 85.5827 159.321 87.7445 159.321C88.478 159.321 89.2115 159.166 89.945 159.012C90.5241 158.858 91.2576 158.858 91.991 158.858C92.7245 158.858 93.6124 158.858 94.3073 159.012C95.0408 159.166 95.8901 159.321 96.6236 159.321C96.778 159.321 96.9324 159.321 97.0482 159.166H97.3571C97.3571 159.166 97.7817 159.012 98.245 159.012C100.445 159.012 101.758 159.437 102.183 160.17C102.607 161.058 102.762 162.486 102.762 164.378C102.762 165.961 102.453 167.273 101.758 168.007C101.024 168.895 100.137 169.474 99.1329 169.744C97.9747 170.169 96.8166 170.323 95.5041 170.323C94.1915 170.478 92.8789 170.478 91.7208 170.478H89.8292C89.0957 170.632 88.5166 170.632 87.7831 170.632C87.2041 170.632 86.625 170.478 86.0459 170.323C85.4669 170.169 84.8878 170.169 84.3087 170.169C83.4208 170.169 82.5715 170.169 81.838 170.323C80.9501 170.478 80.1008 170.478 79.2129 170.478C78.4795 170.478 77.746 170.323 77.0125 170.169L77.1283 170.207ZM96.0445 192.058C94.8864 192.791 93.844 193.37 92.9948 193.795C92.5701 193.64 91.8366 193.061 90.7943 192.212C89.7906 191.324 88.5938 190.32 87.5901 189.162C86.432 188.158 85.3897 186.962 84.5404 185.958C83.5367 184.954 82.9576 184.221 82.4943 183.758C82.0697 183.333 81.6064 182.754 81.3362 182.291C81.0274 181.866 80.7571 181.287 80.3325 180.824C79.7534 180.245 79.4446 179.82 79.3288 179.511C79.7534 179.357 80.3325 179.357 81.066 179.357C81.4906 179.357 81.7994 179.357 82.0697 179.511C82.2241 179.665 82.4943 179.665 82.9576 179.665H95.9287C97.9747 179.665 100.021 179.665 102.028 179.511C103.92 179.357 105.966 179.357 108.012 179.357C108.437 179.357 109.016 179.357 109.595 179.511C110.019 179.665 110.598 179.665 111.062 179.665H111.795C111.795 179.665 111.062 180.245 110.328 180.824C109.595 181.557 109.016 181.827 108.861 181.827C108.437 182.252 107.857 182.831 107.394 183.41C106.97 183.989 106.391 184.414 105.927 184.723C104.924 185.302 103.881 186.035 102.878 186.923C101.719 187.811 100.561 188.66 99.3645 189.548C98.2064 190.436 97.0482 191.285 96.0059 192.019L96.0445 192.058Z" fill="white"/>
<path d="M74.8505 196.536C74.2715 196.536 73.3836 196.844 72.3798 197.269C71.3761 197.848 70.1794 198.427 69.0212 199.161C67.8631 199.894 66.8208 200.743 65.8171 201.477C64.8134 202.21 64.2343 202.789 63.9255 203.214C63.5008 203.639 63.0375 204.218 62.7673 204.681C62.4585 205.106 62.0338 205.685 61.6092 206.148C60.8757 206.882 59.9878 207.615 59.1385 208.04C58.2506 208.464 57.5171 209.043 56.8222 209.777C56.3976 210.202 55.9343 210.665 55.5097 211.089C55.085 211.514 54.5059 211.977 54.0427 212.402C52.4599 213.406 50.8385 214.448 49.526 215.297C48.059 216.185 46.4762 216.919 44.739 217.614C44.3143 217.768 43.5809 218.038 42.5385 218.501C41.4962 218.965 40.8013 219.081 40.3381 219.081C39.3344 219.081 38.0218 219.081 36.5548 218.926C35.0879 218.926 33.6595 218.772 32.3469 218.347C31.0344 218.038 29.8763 217.459 28.8339 216.726C27.7916 215.992 27.367 214.834 27.367 213.522C27.367 212.055 27.7916 210.626 28.6795 209.159C29.5674 207.692 30.88 206.959 32.4628 206.959C33.4665 206.959 34.5088 207.113 35.5125 207.383C36.4004 207.692 37.4041 207.808 38.4079 207.808C39.4116 207.808 40.6083 207.654 42.0367 207.229C43.4651 206.804 44.6618 206.341 45.3953 205.916C46.1288 205.492 46.8622 204.758 47.4413 204.025C47.866 203.291 48.445 202.712 49.1785 202.133C50.4911 200.975 51.958 199.817 53.2706 198.504C54.5832 197.346 55.7413 196.188 57.0538 194.876C57.4785 194.451 58.0576 193.988 58.5208 193.872C58.9455 193.717 59.4087 193.447 59.5245 193.138L60.8371 191.826C61.1459 191.401 61.5706 190.938 61.9952 190.513C62.7287 189.78 63.578 189.201 64.8906 188.622C66.0487 188.197 67.3613 187.734 68.6738 187.309C69.9864 186.884 71.2989 186.576 72.6115 186.421C73.924 186.267 74.9277 186.112 75.8156 186.112C80.6026 186.112 84.6947 187 88.0533 188.737C91.2575 190.475 94.3072 193.254 97.357 196.883C98.0905 197.887 98.8239 198.775 99.403 199.778C99.8277 200.782 100.561 201.67 101.295 202.674C101.874 203.562 102.607 204.411 103.341 205.299C104.074 206.187 104.808 206.92 105.541 207.615C106.275 208.194 107.008 208.928 107.587 209.661C108.321 210.665 109.17 211.862 109.903 212.865C110.637 214.023 111.37 215.066 112.22 216.069C113.532 217.382 114.845 218.695 116.312 219.698C117.779 220.856 119.207 222.015 120.52 223.173C122.141 224.64 123.878 225.952 125.461 227.265C127.044 228.577 128.82 229.735 130.711 230.894C131.445 231.318 132.178 231.627 132.912 231.627C133.645 231.781 134.495 231.936 135.228 232.361C136.965 233.248 139.011 233.982 141.328 234.407C143.528 234.831 145.69 235.294 147.581 235.41C148.585 235.565 149.782 235.719 150.786 235.835C151.789 235.989 152.986 236.144 153.99 236.144C154.414 236.144 154.878 236.144 155.302 235.989H157.503C157.812 235.989 158.082 236.144 158.236 236.414C158.661 236.723 158.97 237.418 158.97 238.614C158.815 239.773 158.815 240.66 158.97 241.085C159.124 241.24 159.124 241.51 159.279 241.664C159.433 241.973 159.433 242.243 159.433 242.398C159.433 242.822 159.279 243.286 159.124 243.71C158.97 244.135 158.7 244.714 158.545 245.177C157.812 246.914 156.808 247.802 155.65 247.957C154.492 248.111 153.025 248.266 151.442 248.266C150.129 248.266 148.817 247.957 147.504 247.378C146.192 246.953 145.034 246.644 144.146 246.644C143.991 246.799 143.721 246.953 143.258 246.799H142.37C142.061 246.799 141.482 246.644 140.478 246.374C139.474 246.22 138.278 245.949 137.12 245.64C135.961 245.332 134.919 245.061 133.915 244.753C132.912 244.444 132.178 244.328 131.869 244.174C131.445 244.019 130.866 243.749 130.402 243.286C129.939 242.822 129.399 242.552 128.781 242.398C128.048 242.243 127.198 241.973 126.002 241.51C124.689 241.201 123.955 240.776 123.531 240.197C122.527 239.618 121.639 239.039 120.635 238.576C119.632 238.151 118.744 237.572 117.856 236.839C115.964 235.526 114.227 234.059 112.606 232.631C110.869 231.164 109.093 229.581 107.51 227.96C107.085 227.535 106.776 227.072 106.506 226.647C106.236 226.222 105.927 225.914 105.503 225.489C103.032 223.018 100.716 220.084 98.3607 216.764C98.0518 216.34 97.936 215.876 97.7816 215.452C97.6272 215.027 97.4728 214.564 97.0481 214.139C96.3146 213.135 95.1565 211.668 93.844 209.777C92.5314 208.04 91.0644 206.264 89.6361 204.372C88.0147 202.635 86.5863 201.014 84.9649 199.585C83.3435 198.273 82.0696 197.385 80.8728 196.96C79.4059 196.536 77.9775 196.381 76.5105 196.381H74.7733L74.8505 196.536ZM131.059 220.856C130.634 221.165 130.171 221.281 129.746 221.281C129.322 221.435 128.742 221.435 128.125 221.281H126.658C126.233 221.281 125.77 221.281 125.345 221.435C124.921 221.59 124.457 221.59 124.033 221.59C123.724 221.59 123.608 221.281 123.454 220.702C123.299 220.277 123.145 219.698 123.145 218.965C122.99 218.386 122.99 217.807 122.99 217.228C122.836 216.648 122.836 216.224 122.836 216.069C122.682 215.915 122.682 215.49 122.682 215.066C122.682 213.753 122.836 212.286 122.99 210.858C123.145 209.545 123.299 208.078 123.299 206.766V202.403C123.299 202.095 123.299 201.824 123.145 201.67V200.782C123.145 200.782 122.99 200.357 122.99 200.049C122.99 199.469 123.145 198.89 123.299 198.157C123.454 197.423 123.878 197.153 124.612 197.153H125.924C126.503 197.308 126.928 197.308 127.082 197.462H128.549C129.283 197.616 129.708 197.462 130.016 197.308H130.904C131.213 197.462 131.329 197.616 131.329 198.041C131.329 198.196 131.329 198.466 131.175 198.775C131.02 199.083 131.02 199.354 131.02 199.508C130.866 199.662 130.866 199.817 130.866 200.242C130.866 201.245 131.02 202.288 131.29 203.291C131.445 204.295 131.599 205.337 131.599 206.341C131.599 207.654 131.445 208.966 131.29 210.124C131.136 211.437 130.982 212.749 130.982 214.062C130.982 214.95 131.136 215.799 131.29 216.533C131.445 217.266 131.599 218.27 131.599 219.582C131.599 220.161 131.445 220.586 131.02 220.895L131.059 220.856ZM141.405 221.59C141.405 221.59 141.096 221.59 140.98 221.435C140.826 221.435 140.671 221.281 140.671 221.011V220.123C140.671 219.698 140.671 219.119 140.826 218.54C140.98 217.961 140.98 217.382 140.98 216.919C140.98 215.761 140.826 214.602 140.671 213.444C140.517 212.286 140.362 211.128 140.362 209.931C140.362 209.198 140.517 208.349 140.671 207.615C140.826 206.882 140.98 206.148 140.98 205.415V199.585C140.98 198.582 141.289 198.002 141.868 197.694C142.447 197.539 143.181 197.385 143.914 197.385H148.006C148.74 197.385 149.164 197.539 149.01 197.809C148.855 198.234 148.855 198.697 148.855 199.122C148.855 200.126 149.01 201.014 149.164 201.902C149.319 202.789 149.319 203.639 149.319 204.681V206.148C149.164 206.727 149.164 207.306 149.164 207.769C149.164 208.233 149.319 208.657 149.473 208.928C149.627 209.352 149.627 209.815 149.627 210.24C149.627 210.819 149.627 211.398 149.473 211.823C149.319 212.402 149.319 212.981 149.319 213.56C149.319 214.294 149.319 215.182 149.473 216.031V219.814C149.473 220.123 149.319 220.393 148.894 220.548C148.469 220.702 147.89 220.856 147.427 220.972C146.848 221.127 146.269 221.281 145.806 221.397C145.227 221.551 144.802 221.551 144.648 221.551H141.443L141.405 221.59Z" fill="white"/>
<path d="M170.629 184.916C170.629 184.916 170.049 185.07 169.47 185.07C168.467 185.07 167.424 185.07 166.421 184.916C165.417 184.761 164.375 184.761 163.371 184.761C162.483 184.761 161.634 184.761 160.9 184.916C160.012 185.07 159.163 185.07 158.275 185.07C157.966 185.07 157.85 185.07 157.696 184.916C157.696 182.29 157.271 179.665 156.383 177.195C155.38 174.724 154.183 172.253 152.87 170.053C152.137 168.74 151.288 167.582 150.245 166.54L147.041 163.336L143.837 160.131C142.679 159.128 141.521 158.085 140.208 157.082H139.475C138.317 155.924 137.004 154.881 135.537 153.877C134.07 152.99 132.642 152.14 131.329 151.252C130.325 150.673 129.438 150.094 128.704 149.361C127.971 148.627 127.083 148.048 126.079 147.469C124.612 146.581 123.184 145.578 121.717 144.419C120.134 143.261 118.667 141.949 117.354 140.636C115.887 139.324 114.729 137.857 113.725 136.274C112.722 134.652 111.988 133.07 111.525 131.332C111.371 130.908 111.216 130.329 111.1 129.595C110.946 128.862 110.792 128.283 110.792 127.858C110.792 126.545 110.946 125.233 111.216 123.92C111.525 122.762 111.641 121.604 111.795 120.292V118.4C111.795 118.091 111.95 117.666 112.22 117.087C112.49 116.508 112.799 115.929 113.224 115.196C113.648 114.617 113.957 114.038 114.382 113.574C114.806 113.15 114.961 112.686 115.115 112.571C115.27 112.262 115.54 111.992 115.849 111.683C116.158 111.528 116.428 111.258 116.582 110.949C118.783 107.591 121.369 104.271 124.303 100.758C127.198 97.3991 130.557 94.774 134.186 92.8823C134.611 92.8823 135.344 92.4577 136.232 91.5698L137.969 89.8326C138.394 89.4079 138.973 88.8289 139.552 88.2498C139.977 87.8252 140.556 87.2461 141.173 86.7828C141.598 86.474 142.177 86.0493 143.219 85.3159C144.223 84.7368 145.111 84.0033 146.115 83.2698C147.118 82.5363 148.006 81.9573 148.74 81.2238C149.473 80.4903 149.898 80.0656 149.898 79.641C149.898 79.2163 149.743 78.7531 149.319 78.3284C148.894 77.9038 148.585 77.595 148.161 77.3247C147.582 76.9001 147.003 76.321 146.578 75.8578C145.999 75.4331 145.42 74.9699 144.957 74.3908C144.493 73.8117 143.953 72.9238 143.374 71.9201C142.64 70.9164 142.061 69.8741 141.482 68.7159C140.749 67.5578 140.324 66.3996 139.899 65.2415C139.475 64.2378 139.166 63.3499 139.166 62.6164C139.166 62.1918 139.475 61.7285 139.899 61.4583C140.054 61.3038 140.478 61.1494 141.212 60.8792C141.945 60.7248 142.679 60.4545 143.528 60.1457C144.262 59.8369 145.15 59.5666 145.844 59.4122C146.578 59.2578 147.003 59.1034 147.157 59.1034C147.582 59.1034 148.045 59.4122 148.161 59.9913C148.315 60.7248 148.47 61.1494 148.585 61.5741C149.473 63.7745 150.477 65.782 151.635 67.5578C152.793 69.3336 154.53 70.6075 156.885 71.4954C157.619 71.8043 158.507 72.0745 159.202 72.2289C159.935 72.5378 160.784 72.6536 161.518 72.6536C162.251 72.6536 162.985 72.4992 163.718 72.0745C164.452 71.7657 165.185 71.6499 165.919 71.6499C166.498 71.6499 167.077 71.9587 167.656 72.3833C168.235 72.808 168.814 73.3871 169.393 74.0047C169.818 74.7382 170.281 75.3173 170.551 76.0508C170.86 76.7843 170.976 77.5177 170.976 77.9424C170.976 78.8303 170.667 79.6796 169.972 80.4131C169.239 81.301 168.389 81.9959 167.347 82.7294C166.305 83.4628 165.456 84.0419 164.452 84.621C163.448 85.3545 162.56 85.7791 161.827 86.2038C161.093 86.6284 160.669 87.0917 160.36 87.5163C159.935 87.941 159.356 88.2498 158.623 88.6745C157.04 89.4079 155.573 90.2572 153.951 90.9907C152.369 91.8786 150.747 92.8823 149.435 93.8861C149.01 94.1949 148.547 94.6196 148.122 95.0442C147.543 95.4689 146.964 96.0479 146.539 96.5112C145.96 97.0902 145.381 97.5149 144.918 97.9781C144.455 98.4414 144.03 98.7116 143.76 98.8661C143.335 99.1749 142.872 99.4451 142.447 99.5995C142.023 99.7539 141.444 100.179 140.98 100.603C140.517 101.028 140.247 101.337 139.977 101.761C139.668 102.186 139.397 102.649 138.973 103.074C138.239 103.807 137.506 104.232 136.657 104.541C135.769 104.966 135.074 105.429 134.34 106.162C133.337 107.166 132.024 108.633 130.557 110.37C129.09 112.107 127.778 113.999 126.465 116.045C125.152 118.091 123.994 120.137 123.106 122.145C122.218 124.191 121.794 125.928 121.794 127.549L121.948 128.128C122.682 129.711 123.685 131.332 124.998 132.799C126.311 134.266 127.623 135.579 129.09 136.737C129.824 137.316 130.557 137.895 131.291 138.629C132.024 139.362 132.758 140.096 133.607 140.52C134.34 140.945 135.228 141.408 136.232 141.833C137.12 142.258 137.969 142.721 138.703 143.145C139.436 143.57 140.285 144.149 141.019 144.728C141.752 145.307 142.486 145.732 143.335 146.041C143.76 146.195 144.069 146.35 144.339 146.465C144.648 146.62 144.918 146.774 145.343 146.89C146.655 147.624 147.968 148.627 148.971 149.94C149.975 151.252 151.172 152.411 152.446 153.144C153.758 153.877 154.917 154.727 156.229 155.46C157.387 156.194 158.43 157.197 159.433 158.356C159.858 158.935 160.321 159.514 160.746 160.247C161.055 160.981 161.479 161.56 161.904 162.293C162.792 163.606 163.487 164.764 164.22 165.806C164.799 166.964 165.533 168.277 166.266 169.59C166.691 170.323 167.154 171.327 167.733 172.485C168.158 173.797 168.737 175.11 169.2 176.423C169.663 177.735 169.934 179.048 170.358 180.36C170.667 181.673 170.783 182.676 170.783 183.41C170.783 184.143 170.629 184.722 170.474 184.877L170.629 184.916ZM173.524 115.312C173.099 115.312 172.79 115.312 172.636 115.157C171.632 115.157 170.899 115.003 170.744 114.578C170.436 114.153 170.32 113.42 170.32 112.378C170.474 112.223 170.474 112.069 170.474 111.799C170.629 111.374 170.783 111.065 170.783 110.795C170.937 110.64 170.937 110.37 171.092 110.216C171.092 110.061 171.092 109.907 171.246 109.791C171.246 109.482 171.246 109.212 171.401 109.058C171.246 107.745 170.976 106.587 170.822 105.274C170.667 104.116 170.513 102.958 170.513 101.646C170.513 100.758 170.513 99.9084 170.667 99.0205C170.822 98.287 170.822 97.3991 170.822 96.5498V94.8126C170.667 94.3879 170.667 93.8089 170.667 93.3456C170.667 92.3419 170.976 91.7242 171.671 91.6084C172.404 91.454 173.138 91.454 173.871 91.454H175.029C176.921 91.454 178.079 91.8786 178.542 92.9209C178.851 93.9247 178.967 95.3916 178.967 97.013V102.842L178.542 103.421C178.697 104.155 178.851 105.004 178.851 105.738V112.879C178.851 112.879 178.851 113.459 178.697 113.883C178.542 114.462 178.272 114.771 178.118 114.887C177.963 115.041 177.809 115.196 177.539 115.196C177.23 115.35 176.96 115.35 176.805 115.35H173.601L173.524 115.312ZM193.019 115.62C192.595 115.62 192.131 115.62 191.707 115.775C191.282 115.929 190.819 115.929 190.394 115.929C189.506 115.929 189.082 115.62 188.927 115.196C188.773 114.771 188.773 114.192 188.773 113.459C188.773 112.146 188.773 110.988 188.927 109.675V106.046C188.927 105.313 188.927 104.464 189.082 103.73C189.236 102.997 189.236 102.109 189.236 101.414C189.236 100.526 189.236 99.6767 189.082 98.9433C188.927 98.2098 188.773 97.3605 188.773 96.4726C188.773 96.1637 188.773 95.7391 188.927 95.3144C188.927 94.8898 188.927 94.3107 189.082 93.8475C189.236 93.4228 189.39 92.9596 189.506 92.5349C189.661 92.1103 189.931 91.9558 190.394 91.9558H191.128C191.128 91.9558 191.552 92.1103 191.707 92.1103C191.861 92.2647 192.131 92.2647 192.44 92.2647H193.907C193.907 92.2647 194.332 92.2647 194.641 92.1103H195.22C195.799 92.1103 196.223 92.5349 196.687 93.4228C196.995 94.3107 197.266 95.3144 197.42 96.4726C197.575 97.6307 197.575 98.7888 197.575 99.8312V106.973C197.575 107.552 197.42 107.977 197.266 108.44C196.957 108.865 196.841 109.444 196.841 110.023C196.841 110.756 196.995 111.335 197.15 111.914C197.304 112.493 197.459 113.073 197.459 113.806V115.273C197.459 115.582 197.034 115.698 196.301 115.698H193.096L193.019 115.62Z" fill="white"/>
<path d="M84 270C9.57049 270 -51 209.43 -51 135C-51 60.5705 9.57049 0 84 0C158.43 0 219 60.5705 219 135C219 209.43 158.43 270 84 270ZM84 11.5814C15.9402 11.5814 -39.4186 66.9402 -39.4186 135C-39.4186 203.06 15.9402 258.419 84 258.419C152.06 258.419 207.419 203.06 207.419 135C207.419 66.9402 152.021 11.5814 84 11.5814Z" fill="white"/>
</svg>
