<?xml version="1.0" encoding="UTF-8"?>
<svg id="_レイヤー_2" data-name="レイヤー 2" xmlns="http://www.w3.org/2000/svg" viewBox="0 0 60.01 60">
  <defs>
    <style>
      .cls-1 {
        fill: #000;
        stroke-width: 0px;
      }
    </style>
  </defs>
  <g id="Icons">
    <path class="cls-1" d="M52,48.06c-1.19-.13-2.39-.03-3.52.3-1.05-2.61-3.58-4.35-6.48-4.35-1.6,0-3.14.55-4.37,1.54-1.23-1.46-2.84-2.51-4.63-3.08v-3.46c0-8.82,3.4-14.96,5.31-17.72,4.7,2.16,10.55,1.25,15.13-2.44,4.38-3.5,6.76-9.27,6.55-15.81-.02-.49-.38-.89-.86-.96-1.54-.22-3.09-.57-4.59-.9C51.8.57,48.94-.06,46.01,0c-3.15.08-8.98.88-12.6,5.4-1.73,2.17-2.61,5.32-2.41,8.66.03.38.27.71.62.86.36.15.76.07,1.05-.18,4.07-3.67,8.28-5.17,11.78-5.68-6.03,2.01-12.45,6.49-15.69,16.18-2.98-5.51-7.23-9.19-12.84-11.12,3.42.56,7.48,2.08,11.41,5.62.29.25.69.32,1.05.18.35-.15.59-.48.62-.86.2-3.34-.68-6.49-2.41-8.66-3.62-4.52-9.45-5.32-12.61-5.4-2.95-.07-5.78.56-8.52,1.17-1.5.33-3.05.68-4.59.9-.48.07-.84.47-.86.96-.21,6.54,2.17,12.3,6.55,15.81,4.59,3.68,10.43,4.6,15.13,2.43,1.78,2.58,4.9,8.19,5.27,16.2-1.78.57-3.37,1.62-4.59,3.06-1.23-.98-2.77-1.54-4.37-1.54-2.9,0-5.43,1.75-6.48,4.36-1.13-.33-2.33-.43-3.52-.3C3.44,48.55,0,52.51,0,57.27v.73c0,1.11.9,2,2,2h56c1.1,0,2-.89,2-2v-.73c0-4.76-3.44-8.72-8-9.21Z"/>
  </g>
</svg>