<svg width="22" height="22" viewBox="0 0 22 22" fill="none" xmlns="http://www.w3.org/2000/svg">
<path d="M7.22095 15.5026V6.16044C7.22095 5.90469 7.31121 5.69017 7.49173 5.51687C7.67226 5.34356 7.88287 5.25721 8.12357 5.25782C8.19879 5.25782 8.27791 5.26895 8.36096 5.29121C8.444 5.31348 8.52283 5.34748 8.59744 5.39321L15.9538 10.0643C16.0892 10.1545 16.1909 10.2674 16.2589 10.4027C16.3269 10.5381 16.3606 10.6811 16.36 10.8315C16.3594 10.9819 16.3257 11.1248 16.2589 11.2602C16.1921 11.3956 16.0904 11.5085 15.9538 11.5987L8.59744 16.2698C8.52222 16.3149 8.44339 16.3489 8.36096 16.3718C8.27852 16.3946 8.19939 16.4058 8.12357 16.4052C7.88287 16.4052 7.67226 16.3185 7.49173 16.1452C7.31121 15.9719 7.22095 15.7577 7.22095 15.5026Z" fill="white"/>
</svg>
