<svg width="23" height="23" viewBox="0 0 23 23" fill="none" xmlns="http://www.w3.org/2000/svg">
<path d="M8.08521 15.8906V6.5485C8.08521 6.29275 8.17547 6.07823 8.35599 5.90493C8.53652 5.73163 8.74713 5.64528 8.98782 5.64588C9.06304 5.64588 9.14217 5.65701 9.22521 5.67927C9.30825 5.70154 9.38708 5.73554 9.4617 5.78127L16.8181 10.4523C16.9534 10.5426 17.0551 10.6554 17.1231 10.7908C17.1911 10.9262 17.2248 11.0691 17.2242 11.2196C17.2236 11.37 17.1899 11.5129 17.1231 11.6483C17.0563 11.7837 16.9546 11.8965 16.8181 11.9868L9.4617 16.6578C9.38648 16.703 9.30765 16.737 9.22521 16.7598C9.14277 16.7827 9.06365 16.7938 8.98782 16.7932C8.74713 16.7932 8.53652 16.7066 8.35599 16.5333C8.17547 16.36 8.08521 16.1458 8.08521 15.8906Z" fill="#C30D23"/>
</svg>
