<?xml version="1.0" encoding="UTF-8"?>
<svg id="_レイヤー_2" data-name="レイヤー 2" xmlns="http://www.w3.org/2000/svg" viewBox="0 0 366.3 262.02">
  <defs>
    <style>
      .cls-1 {
        fill: #fff;
      }

      .cls-1, .cls-2 {
        stroke-width: 0px;
      }

      .cls-2 {
        fill: #040000;
      }
    </style>
  </defs>
  <g id="Layer_1" data-name="Layer 1">
    <g>
      <g>
        <path class="cls-2" d="M188.94,91.81c0-4.36-.98-8.57-2.8-12.37h29.72c-.06.04-.13.08-.19.11-1.75.92-2.84,2.76-2.81,4.74.49,34.42-22.33,64.92-55.49,74.17l-5.87,1.64c.24-.82.49-1.63.74-2.42l5.98-18.78c3.04-9.58,9.18-17.66,17.28-22.76,8.41-5.3,13.44-14.39,13.44-24.33Z"/>
        <polygon class="cls-2" points="130.18 83.43 126.19 79.44 130.18 79.44 130.18 83.43"/>
        <polygon class="cls-2" points="144.72 79.44 140.73 83.43 140.73 79.44 144.72 79.44"/>
        <path class="cls-2" d="M178.39,91.81c0,6.29-3.18,12.05-8.51,15.41-10.2,6.42-17.91,16.54-21.71,28.49l-5.97,18.78c-.69,2.14-1.46,4.65-2.03,7.22-.48,2.2-2.46,3.79-4.71,3.79s-4.24-1.59-4.72-3.79c-.56-2.57-1.34-5.08-2.03-7.22l-5.97-18.78c-3.8-11.95-11.51-22.07-21.71-28.49-5.33-3.36-8.51-9.12-8.51-15.41,0-4.65,1.76-9.05,4.86-12.37h19.88c-1.36,2.04-1.14,4.83.67,6.64l12.25,12.26v28.12c0,2.92,2.36,5.28,5.28,5.28s5.27-2.36,5.27-5.28v-28.12l12.25-12.26c1.81-1.81,2.03-4.6.67-6.64h19.87c3.11,3.32,4.87,7.72,4.87,12.37Z"/>
        <path class="cls-2" d="M58.05,84.29c.01-.34-.02-.68-.08-1.01l9.64-3.84h17.17c-1.82,3.8-2.8,8.01-2.8,12.37,0,9.94,5.02,19.03,13.43,24.33,8.1,5.1,14.24,13.18,17.28,22.76l5.98,18.78c.25.79.5,1.6.75,2.42l-5.88-1.64c-33.16-9.25-55.98-39.75-55.49-74.17Z"/>
        <path class="cls-2" d="M250.36,79.44v113.02H0v-86.07l47.58-18.96c.44,18.87,7.03,36.57,18.07,50.82,11.09,14.33,26.69,25.19,45.07,30.32l5.88,1.64c.93.26,1.87.39,2.81.39,1.3,0,2.6-.25,3.81-.71,2.84,3.74,7.34,6.11,12.23,6.11s9.41-2.37,12.25-6.11c1.21.46,2.5.71,3.8.71.94,0,1.89-.13,2.82-.39l5.87-1.64c36.77-10.25,62.37-43.46,63.16-81.4,3.08-2.08,5.67-4.72,7.69-7.73h19.32Z"/>
      </g>
      <g>
        <path class="cls-2" d="M293,197.74c-17.75,0-32.13,14.39-32.13,32.14s14.38,32.14,32.13,32.14,32.14-14.39,32.14-32.14-14.39-32.14-32.14-32.14ZM299.49,236.94c-1.71,1.57-3.98,2.54-6.48,2.54s-4.78-.97-6.49-2.54c-1.91-1.75-3.11-4.26-3.11-7.06,0-.6.06-1.17.17-1.74.82-4.46,4.72-7.85,9.43-7.85s8.6,3.39,9.42,7.85c.11.57.17,1.14.17,1.74,0,2.8-1.2,5.31-3.11,7.06Z"/>
        <path class="cls-2" d="M70.87,224.41c-2.59-15.12-15.74-26.63-31.59-26.67h-.15c-15.85.04-29,11.55-31.59,26.67-.31,1.78-.47,3.6-.47,5.47,0,17.75,14.38,32.14,32.13,32.14s32.14-14.39,32.14-32.14c0-1.87-.16-3.69-.47-5.47ZM45.69,236.94c-1.71,1.57-3.98,2.53-6.48,2.53s-4.78-.96-6.49-2.53c-1.91-1.76-3.11-4.27-3.11-7.06,0-.6.07-1.17.17-1.74.25-1.37.79-2.63,1.56-3.73,1.73-2.49,4.61-4.12,7.87-4.12s6.14,1.63,7.87,4.12c.76,1.1,1.3,2.36,1.55,3.73.11.57.17,1.14.17,1.74,0,2.79-1.2,5.3-3.11,7.06Z"/>
        <path class="cls-2" d="M27.66,197.74H.56v26.67h4.95c.02-.11.03-.23.05-.34,2.13-12.43,10.78-22.28,22.09-26.33Z"/>
        <path class="cls-2" d="M359.57,207.72c-.13-14.67.27-29.2-.27-43.87-4.68-2.14-9.4-4.29-14.12-6.49-3.29-1.53-6.57-3.08-9.83-4.68-.44-.17-.84-.37-1.23-.58-6.67-3.58-6.46-12.58-9-18.93-2.64-10.8-6.98-21.29-9.62-32.06-1.67-6.82-2.66-13.76-2.09-20.97-19.18-.27-38.23-.13-57.28,0h-.18v.04l-.1-.09v23.61l.09.08c-.06,31.31-.32,62.65-.01,93.96H50.75c11.31,4.05,19.96,13.9,22.09,26.33.02.11.03.23.05.34h183.46c4.71-14.94,16.42-29.34,33.24-30.28,18.57-2.69,35.8,11.57,39.83,29.34,12.25.13,24.5.13,36.75.13,0-5.11.13-10.36.13-15.47-2.29-.14-4.44-.27-6.73-.41ZM281.25,150.12c-.14-14.26-.41-28.53.13-42.79,9.56,0,19.25-.14,28.8.27,3.77,14.13,8.35,28.12,12.11,42.39-13.73.27-27.32.13-41.04.13ZM358.03,208.79c-8.32.29-16.78.29-25.09.15-.15-5.02-.15-9.89,0-14.91,8.31-.15,16.63-.15,24.94,0,.29,5.02.29,9.89.15,14.76Z"/>
      </g>
    </g>
    <g>
      <g>
        <path class="cls-1" d="M207.22,45.25c-.15,0-.3,0-.44,0h-.17c-1.65.06-3.23-.66-4.27-1.95-1.04-1.29-1.42-2.99-1.01-4.59.56-2.26.76-4.6.58-6.94-.84-10.9-10.07-19.58-21.02-19.76h-.75c-4.78.08-9.32,1.75-13.03,4.74.1.73.19,1.46.25,2.19.11,1.41.13,2.82.05,4.22,13.35,2.48,23.49,14.2,23.49,28.25,0,8.19-3.45,15.82-9.32,21.19,1.84,2.06,3.38,4.36,4.56,6.83,1.82,3.8,2.8,8.01,2.8,12.37,0,9.94-5.03,19.03-13.44,24.33-8.1,5.1-14.24,13.18-17.28,22.76l-5.98,18.78c-.25.79-.5,1.6-.74,2.42l5.87-1.64c33.16-9.25,55.98-39.75,55.49-74.17-.03-1.98,1.06-3.82,2.81-4.74.06-.03.13-.07.19-.11,5.9-3.18,9.55-9.29,9.55-16,0-10.03-8.16-18.19-18.19-18.19ZM202.36,84.44c.35,24.76-13.28,47.15-34.41,58.52l.27-.87c2.3-7.23,6.87-13.29,12.88-17.07,11.48-7.23,18.34-19.65,18.34-33.21,0-4.25-.69-8.42-2.01-12.37-.7-2.14-1.59-4.21-2.66-6.2,3.64-5.45,5.89-11.78,6.47-18.37,1.82.64,3.78.95,5.75.89h.13s.11,0,.16,0c4.21.03,7.63,3.47,7.63,7.69,0,2.87-1.58,5.48-4.12,6.82-3.76,1.97-6.47,5.28-7.7,9.18-.5,1.59-.76,3.27-.73,5Z"/>
        <path class="cls-1" d="M118.67,157.68l-5.98-18.78c-3.04-9.58-9.18-17.66-17.28-22.76-8.41-5.3-13.43-14.39-13.43-24.33,0-4.36.98-8.57,2.8-12.37,1.17-2.47,2.7-4.77,4.55-6.83-5.87-5.37-9.31-13-9.31-21.19,0-14.05,10.13-25.77,23.48-28.25-.08-1.4-.06-2.81.05-4.22.06-.73.15-1.46.26-2.19-3.71-2.99-8.25-4.66-13.04-4.74h-.74c-10.95.18-20.18,8.86-21.03,19.76-.18,2.34.02,4.68.58,6.94.41,1.6.03,3.3-1.01,4.59-1.04,1.29-2.62,2.01-4.27,1.96h-.16c-.15-.01-.3-.02-.45-.02-10.03,0-18.19,8.16-18.19,18.19,0,6.78,3.73,12.95,9.74,16.11,1.45.76,2.44,2.15,2.73,3.73.06.33.09.67.08,1.01-.49,34.42,22.33,64.92,55.49,74.17l5.88,1.64c-.25-.82-.5-1.63-.75-2.42ZM68.55,84.44c.03-1.73-.23-3.41-.73-5-1.22-3.9-3.94-7.21-7.69-9.18-2.55-1.34-4.13-3.95-4.13-6.82,0-4.24,3.45-7.69,7.61-7.69h.39c1.94.07,3.87-.24,5.67-.87.58,6.59,2.83,12.91,6.47,18.36-1.07,1.99-1.96,4.06-2.66,6.2-1.32,3.95-2,8.12-2,12.37,0,13.57,6.85,25.98,18.34,33.21,6,3.78,10.57,9.84,12.87,17.07l.28.87c-21.13-11.37-34.77-33.77-34.42-58.52Z"/>
        <path class="cls-1" d="M170.17,76.6c-1.56-1.02-2.46-2.8-2.37-4.66.09-1.86,1.16-3.54,2.81-4.41,6.01-3.16,9.74-9.33,9.74-16.11,0-10.03-8.16-18.19-18.19-18.19-.16,0-.31.01-.47.02h-.13c-1.65.06-3.24-.67-4.28-1.95-1.04-1.29-1.42-2.99-1.01-4.6.56-2.26.76-4.59.58-6.93-.84-10.91-10.07-19.58-21.02-19.77h-.75c-10.95.19-20.18,8.86-21.02,19.77-.18,2.34.02,4.67.58,6.93.41,1.61.03,3.31-1.01,4.6-1.04,1.28-2.63,2.01-4.28,1.95h-.13c-.16-.01-.31-.02-.47-.02-10.03,0-18.19,8.16-18.19,18.19,0,6.78,3.73,12.95,9.74,16.11,1.65.87,2.72,2.55,2.81,4.41.09,1.86-.81,3.64-2.37,4.66-1.25.82-2.38,1.77-3.36,2.84-3.1,3.32-4.86,7.72-4.86,12.37,0,6.29,3.18,12.05,8.51,15.41,10.2,6.42,17.91,16.54,21.71,28.49l5.97,18.78c.69,2.14,1.47,4.65,2.03,7.22.48,2.2,2.46,3.79,4.72,3.79s4.23-1.59,4.71-3.79c.57-2.57,1.34-5.08,2.03-7.22l5.97-18.78c3.8-11.95,11.51-22.07,21.71-28.49,5.33-3.36,8.51-9.12,8.51-15.41,0-4.65-1.76-9.05-4.87-12.37-.98-1.07-2.1-2.02-3.35-2.84ZM160.41,59.9c2.98-2.98,4.62-6.94,4.62-11.15,0-1.62-.25-3.2-.71-4.71,3.19.94,5.53,3.89,5.53,7.38,0,2.87-1.58,5.48-4.12,6.82-4.19,2.2-7.15,6.19-8.1,10.75-1.38-.87-2.87-1.5-4.41-1.9l7.19-7.19ZM101.06,51.42c0-3.51,2.36-6.47,5.54-7.39-.47,1.51-.72,3.09-.72,4.72,0,4.21,1.64,8.17,4.62,11.15l7.19,7.19c-1.54.4-3.03,1.03-4.41,1.9-.95-4.56-3.91-8.55-8.09-10.75-2.55-1.34-4.13-3.95-4.13-6.82ZM119.68,109.44c-3.81-4.3-8.19-8.05-13.05-11.11-2.3-1.44-3.61-3.82-3.61-6.52,0-2.47,1.18-4.78,3.19-6.23.62,2.98,2.09,5.72,4.29,7.93l9.18,9.18v6.75ZM140.73,98.34v28.12c0,2.92-2.36,5.28-5.27,5.28s-5.28-2.36-5.28-5.28v-28.12l-12.25-12.26c-1.81-1.81-2.03-4.6-.67-6.64h8.93l3.99,3.99v-18.69l-12.25-12.26c-2.06-2.06-2.06-5.4,0-7.46,2.06-2.05,5.39-2.05,7.45,0l4.8,4.81V17.13c0-2.91,2.36-5.27,5.28-5.27s5.27,2.36,5.27,5.27v32.7l4.8-4.81c2.06-2.05,5.4-2.05,7.45,0,2.06,2.06,2.06,5.4,0,7.46l-12.25,12.26v18.69l3.99-3.99h8.93c1.36,2.04,1.14,4.83-.67,6.64l-12.25,12.26ZM164.28,98.33c-4.86,3.06-9.24,6.81-13.05,11.11v-6.75l9.18-9.18c2.2-2.21,3.67-4.95,4.29-7.93,2.01,1.45,3.19,3.76,3.19,6.23,0,2.7-1.31,5.08-3.61,6.52Z"/>
      </g>
      <g>
        <path class="cls-2" d="M225.41,63.44c0,6.71-3.65,12.82-9.55,16-.06.04-.13.08-.19.11-1.75.92-2.84,2.76-2.81,4.74.49,34.42-22.33,64.92-55.49,74.17l-5.87,1.64c.24-.82.49-1.63.74-2.42l5.98-18.78c3.04-9.58,9.18-17.66,17.28-22.76,8.41-5.3,13.44-14.39,13.44-24.33,0-4.36-.98-8.57-2.8-12.37-1.18-2.47-2.72-4.77-4.56-6.83,5.87-5.37,9.32-13,9.32-21.19,0-14.05-10.14-25.77-23.49-28.25.08-1.4.06-2.81-.05-4.22-.06-.73-.15-1.46-.25-2.19,3.71-2.99,8.25-4.66,13.03-4.74h.75c10.95.18,20.18,8.86,21.02,19.76.18,2.34-.02,4.68-.58,6.94-.41,1.6-.03,3.3,1.01,4.59,1.04,1.29,2.62,2.01,4.27,1.96h.17c.14-.01.29-.02.44-.02,10.03,0,18.19,8.16,18.19,18.19Z"/>
        <path class="cls-2" d="M119.42,160.1l-5.88-1.64c-33.16-9.25-55.98-39.75-55.49-74.17.01-.34-.02-.68-.08-1.01-.29-1.58-1.28-2.97-2.73-3.73-6.01-3.16-9.74-9.33-9.74-16.11,0-10.03,8.16-18.19,18.19-18.19.15,0,.3,0,.45,0h.16c1.65.06,3.23-.66,4.27-1.95,1.04-1.29,1.42-2.99,1.01-4.59-.56-2.26-.76-4.6-.58-6.94.85-10.9,10.08-19.58,21.03-19.76h.74c4.79.08,9.33,1.75,13.04,4.74-.11.73-.2,1.46-.26,2.19-.11,1.41-.13,2.82-.05,4.22-13.35,2.48-23.48,14.2-23.48,28.25,0,8.19,3.44,15.82,9.31,21.19-1.85,2.06-3.38,4.36-4.55,6.83-1.82,3.8-2.8,8.01-2.8,12.37,0,9.94,5.02,19.03,13.43,24.33,8.1,5.1,14.24,13.18,17.28,22.76l5.98,18.78c.25.79.5,1.6.75,2.42Z"/>
        <path class="cls-2" d="M170.17,76.6c-1.56-1.02-2.46-2.8-2.37-4.66.09-1.86,1.16-3.54,2.81-4.41,6.01-3.16,9.74-9.33,9.74-16.11,0-10.03-8.16-18.19-18.19-18.19-.16,0-.31.01-.47.02h-.13c-1.65.06-3.24-.67-4.28-1.95-1.04-1.29-1.42-2.99-1.01-4.6.56-2.26.76-4.59.58-6.93-.84-10.91-10.07-19.58-21.02-19.77h-.75c-10.95.19-20.18,8.86-21.02,19.77-.18,2.34.02,4.67.58,6.93.41,1.61.03,3.31-1.01,4.6-1.04,1.28-2.63,2.01-4.28,1.95h-.13c-.16-.01-.31-.02-.47-.02-10.03,0-18.19,8.16-18.19,18.19,0,6.78,3.73,12.95,9.74,16.11,1.65.87,2.72,2.55,2.81,4.41.09,1.86-.81,3.64-2.37,4.66-1.25.82-2.38,1.77-3.36,2.84-3.1,3.32-4.86,7.72-4.86,12.37,0,6.29,3.18,12.05,8.51,15.41,10.2,6.42,17.91,16.54,21.71,28.49l5.97,18.78c.69,2.14,1.47,4.65,2.03,7.22.48,2.2,2.46,3.79,4.72,3.79s4.23-1.59,4.71-3.79c.57-2.57,1.34-5.08,2.03-7.22l5.97-18.78c3.8-11.95,11.51-22.07,21.71-28.49,5.33-3.36,8.51-9.12,8.51-15.41,0-4.65-1.76-9.05-4.87-12.37-.98-1.07-2.1-2.02-3.35-2.84ZM140.73,98.34v28.12c0,2.92-2.36,5.28-5.27,5.28s-5.28-2.36-5.28-5.28v-28.12l-12.25-12.26c-1.81-1.81-2.03-4.6-.67-6.64.2-.29.42-.56.67-.81,2.06-2.06,5.39-2.06,7.45,0l.81.81,3.99,3.99v-18.69l-12.25-12.26c-2.06-2.06-2.06-5.4,0-7.46,2.06-2.05,5.39-2.05,7.45,0l4.8,4.81V17.13c0-2.91,2.36-5.27,5.28-5.27s5.27,2.36,5.27,5.27v32.7l4.8-4.81c2.06-2.05,5.4-2.05,7.45,0,2.06,2.06,2.06,5.4,0,7.46l-12.25,12.26v18.69l4.8-4.8c2.06-2.06,5.4-2.06,7.45,0,.25.25.47.52.67.81,1.36,2.04,1.14,4.83-.67,6.64l-12.25,12.26Z"/>
      </g>
    </g>
  </g>
</svg>