<svg width="20" height="20" viewBox="0 0 20 20" fill="none" xmlns="http://www.w3.org/2000/svg">
<path d="M13.9252 3.36783C14.5831 3.19257 15.3857 3.2414 15.8726 3.36783C16.9695 3.6547 17.7695 4.14734 18.248 4.83268C18.8019 5.62484 18.8975 6.63629 18.5339 7.83826C17.7888 10.2971 14.7621 11.823 14.5831 11.912C14.5985 12.3758 14.7059 13.1109 14.8695 13.5983C15.1006 14.2849 15.3138 14.9882 15.1677 15.7389C15.0217 16.4896 14.6616 17.0573 14.1735 17.4431C13.7252 17.8002 13.1704 17.9811 12.5257 17.9811C12.2953 17.9802 12.0669 17.9583 11.8406 17.9152M5.59196 11.476C5.59196 11.476 3.04373 10.2963 2.29944 7.83826C1.93541 6.63673 2.03146 5.62615 2.58496 4.83268C3.06435 4.14778 3.86302 3.65557 4.96038 3.36783C5.44766 3.2414 5.91388 3.17644 6.34721 3.17644M5.81125 11.694C6.03055 12.1299 5.84108 12.9129 5.6095 13.6C5.37836 14.2871 5.13977 14.996 5.31126 15.7406C5.48231 16.4844 5.81695 17.0586 6.30423 17.4444C6.75335 17.801 7.14019 18.0155 7.78492 18.0155C8.0143 18.0146 8.6621 17.7975 8.6621 17.7975" stroke="#C30D23" stroke-width="2" stroke-linecap="round" stroke-linejoin="round"/>
<path d="M10.1971 1.66667C12.4984 1.66667 14.3638 2.81894 14.3638 6.18985C14.3638 9.56076 10.1971 13.8738 10.1971 13.8738C10.1971 13.8738 6.03052 9.56076 6.03052 6.18985C6.03052 2.8185 7.89585 1.66667 10.1971 1.66667Z" stroke="#C30D23" stroke-width="2" stroke-linecap="round" stroke-linejoin="round"/>
<path d="M10.4165 18.3333C9.53498 18.3333 8.78498 18.0447 8.2806 17.6053C7.69859 17.0969 7.4021 16.3732 7.4021 15.4551C7.4021 14.6895 7.81876 14.0508 8.22095 13.4322C8.50691 12.9931 8.90253 12.1286 8.90253 12.1286C8.90253 12.1286 9.11086 11.4154 9.07665 10.9515C9.01305 10.0953 8.17665 9.45046 8.04069 9.00839C7.87622 8.45907 7.91657 8.12424 8.16569 7.95683C8.24244 7.90452 8.5363 7.88708 8.5363 7.88708C8.5363 7.88708 8.48104 7.08228 8.51569 6.81677C8.55735 6.49852 8.72446 6.04424 9.11744 6.0111C9.38936 5.988 9.60427 6.02854 9.74375 6.31933C9.78848 6.4135 9.81962 6.52729 9.86304 6.68511C10.0093 7.21091 10.1935 7.72553 10.4144 8.22495C10.6356 7.72556 10.8203 7.21094 10.967 6.68511C11.0108 6.52773 11.0415 6.4135 11.0867 6.3189C11.2262 6.0281 11.442 5.98843 11.7139 6.01154C12.045 6.04031 12.2731 6.49939 12.3148 6.81677C12.3499 7.08228 12.3428 7.43585 12.2942 7.88664H12.3148C12.4091 7.88664 12.5893 7.90408 12.6665 7.9564C12.9161 8.12381 12.9306 8.61863 12.7906 9.00839C12.6095 9.51411 11.8214 10.0081 11.7323 10.822C11.6757 11.3352 11.774 11.6373 11.9301 12.1291C12.1038 12.6762 12.3249 12.9936 12.6117 13.4322C13.0143 14.0504 13.4306 14.6899 13.4306 15.4551C13.4306 16.3732 13.1349 17.0965 12.5516 17.6048C12.0464 18.0443 11.2981 18.3329 10.4165 18.3333Z" stroke="#C30D23" stroke-width="2" stroke-linecap="round" stroke-linejoin="round"/>
</svg>
