<svg width="60" height="59" viewBox="0 0 60 59" fill="none" xmlns="http://www.w3.org/2000/svg">
<circle cx="30" cy="29.5" r="29.5" fill="white"/>
<path d="M37.8042 19.7874C36.6008 19.7872 35.4454 20.2594 34.5867 21.1024C33.7279 21.9455 33.2345 23.0919 33.2125 24.2951L33.1682 26.7889C33.1656 26.9227 33.1347 27.0546 33.0776 27.1757C33.0204 27.2968 32.9383 27.4045 32.8367 27.4917C32.735 27.5788 32.6161 27.6435 32.4876 27.6815C32.3592 27.7194 32.2242 27.7298 32.0915 27.7119L29.6183 27.3763C26.3677 26.9329 23.2517 25.4351 20.2608 22.9445C19.3156 28.1854 21.1633 31.8159 25.6172 34.6169L28.3833 36.3554C28.5148 36.4378 28.6242 36.5512 28.7017 36.6857C28.7792 36.8202 28.8226 36.9716 28.8281 37.1268C28.8336 37.2819 28.8009 37.436 28.7331 37.5756C28.6652 37.7152 28.5641 37.8361 28.4387 37.9276L25.9181 39.769C27.4175 39.8624 28.8409 39.7959 30.0221 39.5616C37.4922 38.0701 42.4592 32.4493 42.4592 23.1773C42.4592 22.4204 40.8552 19.7874 37.8042 19.7874ZM30.0458 24.2365C30.0735 22.7103 30.5507 21.2261 31.4179 19.9698C32.285 18.7135 33.5035 17.7409 34.9208 17.1739C36.338 16.6068 37.8911 16.4704 39.3855 16.7818C40.8799 17.0932 42.2492 17.8385 43.3221 18.9244C44.4478 18.9165 45.4057 19.2015 47.5464 17.9032C47.0176 20.4999 46.7547 21.6272 45.6258 23.1773C45.6258 35.2771 38.1889 41.1608 30.6412 42.6665C25.4684 43.6989 17.9428 42.0031 15.7895 39.7516C16.8867 39.6661 21.3517 39.1864 23.9326 37.2974C21.7476 35.8566 13.0582 30.7424 18.7693 16.9944C21.4504 20.1251 24.1685 22.2558 26.9235 23.3863C28.7554 24.1384 29.2067 24.1241 30.0474 24.2381" fill="#83A602" fill-opacity="0.9"/>
</svg>
