<svg width="20" height="20" viewBox="0 0 20 20" fill="none" xmlns="http://www.w3.org/2000/svg">
<g clip-path="url(#clip0_2051_1470)">
<mask id="mask0_2051_1470" style="mask-type:luminance" maskUnits="userSpaceOnUse" x="0" y="0" width="20" height="20">
<path d="M10.0001 18.3333C14.6026 18.3333 18.3334 14.6025 18.3334 10C18.3334 5.39751 14.6026 1.66667 10.0001 1.66667C5.39758 1.66667 1.66675 5.39751 1.66675 10C1.66675 14.6025 5.39758 18.3333 10.0001 18.3333Z" fill="white" stroke="white" stroke-width="2" stroke-linejoin="round"/>
<path d="M7.08333 10.7917C7.30435 10.7917 7.51631 10.7039 7.67259 10.5476C7.82887 10.3913 7.91667 10.1793 7.91667 9.95833C7.91667 9.73732 7.82887 9.52536 7.67259 9.36908C7.51631 9.2128 7.30435 9.125 7.08333 9.125C6.86232 9.125 6.65036 9.2128 6.49408 9.36908C6.3378 9.52536 6.25 9.73732 6.25 9.95833C6.25 10.1793 6.3378 10.3913 6.49408 10.5476C6.65036 10.7039 6.86232 10.7917 7.08333 10.7917Z" fill="black"/>
<path d="M9.146 12.0208C9.4172 11.7503 9.63227 11.4288 9.77885 11.0748C9.92543 10.7209 10.0006 10.3414 10.0002 9.95834C10.0006 9.57524 9.92543 9.19582 9.77885 8.84188C9.63227 8.48793 9.4172 8.16643 9.146 7.89584M11.2085 14.0829C11.7509 13.5418 12.181 12.8988 12.4742 12.1909C12.7674 11.483 12.9178 10.7241 12.9168 9.95793C12.9168 8.34709 12.2639 6.88876 11.2085 5.83334" stroke="black" stroke-width="2" stroke-linecap="round" stroke-linejoin="round"/>
</mask>
<g mask="url(#mask0_2051_1470)">
<path d="M0 0H20V20H0V0Z" fill="#C30D23"/>
</g>
</g>
<defs>
<clipPath id="clip0_2051_1470">
<rect width="20" height="20" fill="white"/>
</clipPath>
</defs>
</svg>
